<svg width="263" height="265" viewBox="0 0 263 265" fill="none" xmlns="http://www.w3.org/2000/svg">
<path d="M58.7337 18.0021L58.413 17.6185L58.7337 18.0021ZM158.242 13.6539L158.532 13.2466L158.242 13.6539ZM113.342 112.079L113.219 111.594L112.479 111.782L112.947 112.385L113.342 112.079ZM192.398 193.48L192.062 193.85L192.506 194.253L192.823 193.744L192.398 193.48ZM201.138 177.966L200.687 177.751L200.685 177.755L201.138 177.966ZM201.141 177.959L200.692 177.741L200.69 177.744L201.141 177.959ZM203.66 114.364L204.081 114.095L203.66 114.364ZM179.407 96.175L179.575 95.7043L179.407 96.175ZM179.075 96.0563H178.575V96.4083L178.907 96.527L179.075 96.0563ZM179.075 93.1075V92.6075H178.575V93.1075H179.075ZM253.812 93.1075H254.312V92.6075H253.812V93.1075ZM253.812 96.1085L253.917 96.5974L254.312 96.5127V96.1085H253.812ZM253.417 96.1932L253.521 96.6821L253.417 96.1932ZM241.51 104.439L241.907 104.744L241.51 104.439ZM232.193 121.933L231.733 121.739L232.193 121.933ZM226.741 135.619L226.275 135.438L226.741 135.619ZM209.025 176.31L209.469 176.54L209.469 176.54L209.025 176.31ZM209.024 176.313L209.466 176.545L209.467 176.543L209.024 176.313ZM197 197.313L196.58 197.042L196.35 197.398L196.664 197.684L197 197.313ZM225.598 221.32L225.311 221.729L225.598 221.32ZM259.996 224.959L259.691 224.562H259.691L259.996 224.959ZM260.553 224.53L261.028 224.372L260.805 223.705L260.248 224.134L260.553 224.53ZM260.775 225.197L260.301 225.355V225.355L260.775 225.197ZM261.474 227.294L261 227.452V227.452L261.474 227.294ZM261.556 227.537L261.96 227.83L262.111 227.623L262.03 227.379L261.556 227.537ZM261.405 227.745L261 227.452V227.452L261.405 227.745ZM236.305 255.072L236.596 255.479L236.305 255.072ZM155.797 241.363L156.112 240.975L155.812 240.732L155.501 240.961L155.797 241.363ZM57.5456 133.483L57.6758 133.965L58.3098 133.794L57.9763 133.229L57.5456 133.483ZM59.3751 18.7694L59.6958 19.153L59.3751 18.7694ZM58.7418 133.54L58.3118 133.796L58.7418 133.54ZM59.0801 134.11L59.2075 134.594L59.8483 134.425L59.51 133.855L59.0801 134.11ZM58.4393 134.279L58.3118 133.796H58.3118L58.4393 134.279ZM155.514 240.329L155.812 240.731H155.812L155.514 240.329ZM155.826 240.098L156.141 239.71L155.84 239.466L155.528 239.697L155.826 240.098ZM156.127 240.343L156.442 239.955L156.127 240.343ZM235.722 254.26L236.013 254.666L235.722 254.26ZM260.444 227.366L260.849 227.66L261 227.452L260.919 227.208L260.444 227.366ZM260.047 226.174L260.521 226.016L260.303 225.361L259.749 225.772L260.047 226.174ZM225.024 222.139L225.311 221.729L225.024 222.139ZM196.013 197.768L196.349 197.398H196.349L196.013 197.768ZM195.698 197.482L195.279 197.21L195.047 197.566L195.362 197.852L195.698 197.482ZM195.93 197.125L196.349 197.398L195.93 197.125ZM208.137 175.849L208.58 176.081L208.582 176.079L208.137 175.849ZM225.786 135.313L225.32 135.131L225.786 135.313ZM231.272 121.545L231.733 121.739L231.272 121.545ZM240.717 103.831L241.113 104.135L240.717 103.831ZM252.812 95.3046L252.927 95.7911L253.312 95.6999V95.3046H252.812ZM252.812 94.1075H253.312V93.6075H252.812V94.1075ZM180.075 94.1075V93.6075H179.575V94.1075H180.075ZM180.075 95.3533H179.575V95.7033L179.904 95.8231L180.075 95.3533ZM204.503 113.826L204.081 114.095L204.503 113.826ZM202.043 178.392L201.593 178.174L201.59 178.181L202.043 178.392ZM192.929 194.518L192.505 194.253L192.929 194.518ZM192.612 195.025L192.276 195.395L192.719 195.798L193.036 195.29L192.612 195.025ZM192.169 194.623L191.833 194.993H191.833L192.169 194.623ZM112.083 112.085L111.687 112.39V112.39L112.083 112.085ZM111.615 111.478L111.494 110.993L110.751 111.177L111.219 111.784L111.615 111.478ZM112.358 111.294L112.478 111.78L112.358 111.294ZM157.662 14.4684L157.372 14.8757L157.662 14.4684ZM88.5645 16.9139L88.1472 16.6384L88.5645 16.9139ZM110.123 107.575L109.724 107.876L110.033 108.286L110.434 107.966L110.123 107.575ZM129.525 19.0826L129.097 19.3425L129.525 19.0826ZM87.7299 16.363L88.1472 16.6384L87.7299 16.363ZM130.379 18.5626L130.806 18.3026L130.379 18.5626ZM110.342 108.678L110.032 108.285L110.342 108.678ZM109.941 108.993L109.543 109.295L109.85 109.701L110.25 109.386L109.941 108.993ZM109.634 108.587L110.032 108.285L110.032 108.285L109.634 108.587ZM60.8343 137.028L61.26 136.766L60.8343 137.028ZM60.2938 136.151L60.7195 135.889L60.1791 135.012L59.8244 135.979L60.2938 136.151ZM150.191 235.454L150.51 235.07L150.191 235.454ZM150.763 235.93L150.998 236.371L151.654 236.021L151.082 235.545L150.763 235.93ZM150.106 236.28L149.871 235.839L150.106 236.28ZM59.9392 137.118L60.4086 137.29L59.9392 137.118ZM60.5279 138.433L60.9525 138.169L60.4041 137.287L60.0567 138.266L60.5279 138.433ZM148.977 235.745L149.209 236.188L149.873 235.841L149.298 235.361L148.977 235.745ZM111.78 0C91.148 0 72.2109 6.08332 58.413 17.6185L59.0544 18.3858C72.6398 7.02823 91.336 1 111.78 1V0ZM158.532 13.2466C146.489 4.66934 129.935 0 111.78 0V1C129.777 1 146.114 5.63038 157.952 14.0612L158.532 13.2466ZM178.129 49.9247C178.129 34.359 170.599 21.8401 158.532 13.2466L157.952 14.0612C169.79 22.4919 177.129 34.7231 177.129 49.9247H178.129ZM113.465 112.563C149.944 103.313 178.129 80.1319 178.129 49.9247H177.129C177.129 79.4284 149.549 102.382 113.219 111.594L113.465 112.563ZM192.735 193.11C158.991 162.444 132.447 135.897 113.737 111.772L112.947 112.385C131.711 136.58 158.308 163.174 192.062 193.85L192.735 193.11ZM200.685 177.755C198.34 182.779 195.339 187.819 191.974 193.215L192.823 193.744C196.19 188.343 199.219 183.261 201.591 178.177L200.685 177.755ZM200.69 177.744L200.687 177.751L201.59 178.181L201.593 178.174L200.69 177.744ZM210.027 140.086C210.027 152.832 206.233 166.312 200.692 177.741L201.591 178.177C207.183 166.645 211.027 153.016 211.027 140.086H210.027ZM203.238 114.633C208.048 122.167 210.027 130.967 210.027 140.086H211.027C211.027 130.825 209.017 121.827 204.081 114.095L203.238 114.633ZM179.238 96.6457C190.762 100.774 198.435 107.109 203.238 114.633L204.081 114.095C199.145 106.363 191.282 99.8979 179.575 95.7043L179.238 96.6457ZM178.907 96.527L179.238 96.6457L179.575 95.7043L179.244 95.5856L178.907 96.527ZM178.575 95.7043V96.0563H179.575V95.7043H178.575ZM178.575 93.6075V95.7043H179.575V93.6075H178.575ZM178.575 93.1075V93.6075H179.575V93.1075H178.575ZM179.575 92.6075H179.075V93.6075H179.575V92.6075ZM253.312 92.6075H179.575V93.6075H253.312V92.6075ZM253.812 92.6075H253.312V93.6075H253.812V92.6075ZM254.312 93.6075V93.1075H253.312V93.6075H254.312ZM254.312 95.7043V93.6075H253.312V95.7043H254.312ZM254.312 96.1085V95.7043H253.312V96.1085H254.312ZM253.521 96.6821L253.917 96.5974L253.707 95.6196L253.312 95.7043L253.521 96.6821ZM241.907 104.744C245.228 100.415 248.927 97.6666 253.521 96.6821L253.312 95.7043C248.419 96.7527 244.532 99.6794 241.113 104.135L241.907 104.744ZM232.654 122.127C235.663 114.977 238.571 109.092 241.907 104.744L241.113 104.135C237.695 108.591 234.747 114.575 231.733 121.739L232.654 122.127ZM227.207 135.8C229.121 130.873 230.901 126.294 232.654 122.127L231.733 121.739C229.973 125.921 228.188 130.514 226.275 135.438L227.207 135.8ZM209.469 176.54C217.157 161.659 222.572 147.725 227.207 135.8L226.275 135.438C221.639 147.365 216.242 161.253 208.581 176.081L209.469 176.54ZM209.467 176.543L209.469 176.54L208.581 176.08L208.58 176.083L209.467 176.543ZM197.42 197.585C201.887 190.676 205.682 183.769 209.466 176.545L208.581 176.081C204.802 183.295 201.023 190.171 196.58 197.042L197.42 197.585ZM225.885 220.91C217.851 215.282 208.559 207.125 197.336 196.943L196.664 197.684C207.881 207.86 217.218 216.06 225.311 221.729L225.885 220.91ZM246.672 229.597C240.701 229.597 234.012 226.604 225.885 220.91L225.311 221.729C233.48 227.452 240.382 230.597 246.672 230.597V229.597ZM259.691 224.562C255.269 227.964 251.284 229.597 246.672 229.597V230.597C251.564 230.597 255.758 228.849 260.301 225.355L259.691 224.562ZM260.248 224.134L259.691 224.562L260.301 225.355L260.858 224.926L260.248 224.134ZM261.25 225.039L261.028 224.372L260.079 224.688L260.301 225.355L261.25 225.039ZM261.949 227.135L261.25 225.039L260.301 225.355L261 227.452L261.949 227.135ZM262.03 227.379L261.949 227.135L261 227.452L261.081 227.695L262.03 227.379ZM261.81 228.038L261.96 227.83L261.151 227.244L261 227.452L261.81 228.038ZM236.596 255.479C245.207 249.309 253.06 240.113 261.81 228.038L261 227.452C252.263 239.508 244.488 248.594 236.013 254.666L236.596 255.479ZM206.833 264.796C218.57 264.796 227.948 261.675 236.596 255.479L236.013 254.666C227.539 260.738 218.366 263.796 206.833 263.796V264.796ZM155.482 241.752C172.147 255.268 186.315 264.796 206.833 264.796V263.796C186.686 263.796 172.753 254.473 156.112 240.975L155.482 241.752ZM85.5699 264.796C113.603 264.796 137.118 255.731 156.094 241.766L155.501 240.961C136.684 254.809 113.374 263.796 85.5699 263.796V264.796ZM0 196C0 230.207 30.6141 264.796 85.5699 264.796V263.796C31.0536 263.796 1 229.548 1 196H0ZM57.4154 133C19.0599 143.343 0 169.393 0 196H1C1 169.935 19.6629 144.216 57.6758 133.965L57.4154 133ZM35.9946 67.7473C35.9946 88.78 43.9837 111.466 57.1149 133.737L57.9763 133.229C44.8969 111.046 36.9946 88.5377 36.9946 67.7473H35.9946ZM58.413 17.6185C44.5957 29.17 35.9946 46.1401 35.9946 67.7473H36.9946C36.9946 46.4301 45.4691 29.7433 59.0544 18.3858L58.413 17.6185ZM37.9946 67.7473C37.9946 46.7201 46.3425 30.3165 59.6958 19.153L59.0544 18.3858C45.4691 29.7433 36.9946 46.4301 36.9946 67.7473H37.9946ZM59.1717 133.285C45.9441 111.007 37.9946 88.4709 37.9946 67.7473H36.9946C36.9946 88.7151 45.0323 111.43 58.3118 133.796L59.1717 133.285ZM59.51 133.855L59.1717 133.285L58.3118 133.796L58.6502 134.366L59.51 133.855ZM58.5668 134.763L59.2075 134.594L58.9526 133.627L58.3118 133.796L58.5668 134.763ZM2 196C2 170.336 20.4695 144.806 58.5668 134.763L58.3118 133.796C19.8709 143.93 1 169.79 1 196H2ZM85.5699 262.796C31.4937 262.796 2 228.89 2 196H1C1 229.548 31.0536 263.796 85.5699 263.796V262.796ZM155.217 239.928C136.504 253.789 113.296 262.796 85.5699 262.796V263.796C113.527 263.796 136.941 254.71 155.812 240.731L155.217 239.928ZM155.528 239.697L155.217 239.928L155.812 240.731L156.124 240.5L155.528 239.697ZM156.442 239.955L156.141 239.71L155.511 240.487L155.812 240.731L156.442 239.955ZM206.833 262.796C186.937 262.796 173.196 253.567 156.442 239.955L155.812 240.731C172.586 254.36 186.564 263.796 206.833 263.796V262.796ZM235.431 253.853C227.13 259.801 218.161 262.796 206.833 262.796V263.796C218.366 263.796 227.539 260.738 236.013 254.666L235.431 253.853ZM260.04 227.072C251.378 239.006 243.721 247.914 235.431 253.853L236.013 254.666C244.439 248.629 252.174 239.613 260.849 227.66L260.04 227.072ZM259.573 226.332L259.97 227.524L260.919 227.208L260.521 226.016L259.573 226.332ZM246.672 231.597C251.634 231.597 255.889 229.883 260.345 226.575L259.749 225.772C255.417 228.988 251.367 230.597 246.672 230.597V231.597ZM224.737 222.548C232.947 228.299 240.062 231.597 246.672 231.597V230.597C240.382 230.597 233.48 227.452 225.311 221.729L224.737 222.548ZM195.677 198.138C207.029 208.442 216.509 216.784 224.737 222.548L225.311 221.729C217.142 216.007 207.707 207.707 196.349 197.398L195.677 198.138ZM195.362 197.852L195.677 198.138L196.349 197.398L196.034 197.112L195.362 197.852ZM195.511 196.853L195.279 197.21L196.118 197.755L196.349 197.398L195.511 196.853ZM207.695 175.617C203.856 182.945 200.029 189.903 195.511 196.853L196.349 197.398C200.892 190.409 204.736 183.42 208.58 176.081L207.695 175.617ZM225.32 135.131C220.692 147.042 215.328 160.842 207.693 175.62L208.582 176.079C216.244 161.248 221.625 147.402 226.252 135.494L225.32 135.131ZM230.811 121.351C229.034 125.574 227.24 130.192 225.32 135.131L226.252 135.494C228.173 130.551 229.962 125.947 231.733 121.739L230.811 121.351ZM240.32 103.526C236.82 108.089 233.831 114.174 230.811 121.351L231.733 121.739C234.747 114.575 237.695 108.591 241.113 104.135L240.32 103.526ZM252.697 94.818C247.697 96.0029 243.743 99.0647 240.32 103.526L241.113 104.135C244.442 99.796 248.216 96.9077 252.927 95.7911L252.697 94.818ZM252.312 94.1075V95.3046H253.312V94.1075H252.312ZM180.075 94.6075H252.812V93.6075H180.075V94.6075ZM180.575 95.3533V94.1075H179.575V95.3533H180.575ZM204.924 113.557C199.903 105.691 191.954 99.1461 180.246 94.8834L179.904 95.8231C191.43 100.019 199.191 106.435 204.081 114.095L204.924 113.557ZM212.027 140.086C212.027 130.684 209.987 121.486 204.924 113.557L204.081 114.095C209.017 121.827 211.027 130.825 211.027 140.086H212.027ZM202.493 178.61C208.133 166.976 212.027 153.199 212.027 140.086H211.027C211.027 153.015 207.184 166.642 201.593 178.174L202.493 178.61ZM193.353 194.783C196.849 189.189 200.022 183.904 202.496 178.604L201.59 178.181C199.144 183.422 195.999 188.662 192.505 194.253L193.353 194.783ZM193.036 195.29L193.353 194.783L192.505 194.253L192.188 194.76L193.036 195.29ZM191.833 194.993L192.276 195.395L192.948 194.655L192.505 194.253L191.833 194.993ZM111.687 112.39C130.613 136.925 157.575 163.881 191.833 194.993L192.505 194.253C158.258 163.151 131.349 136.242 112.478 111.78L111.687 112.39ZM111.219 111.784L111.687 112.39L112.478 111.78L112.011 111.173L111.219 111.784ZM112.238 110.809L111.494 110.993L111.735 111.964L112.478 111.78L112.238 110.809ZM176.129 49.9247C176.129 78.9212 148.783 101.76 112.238 110.809L112.478 111.78C149.172 102.694 177.129 79.6289 177.129 49.9247H176.129ZM157.372 14.8757C168.982 23.1438 176.129 35.0872 176.129 49.9247H177.129C177.129 34.7231 169.79 22.492 157.952 14.0612L157.372 14.8757ZM111.78 2C129.618 2 145.74 6.59141 157.372 14.8757L157.952 14.0612C146.114 5.63038 129.777 1 111.78 1V2ZM59.6958 19.153C73.0686 7.97313 91.5241 2 111.78 2V1C91.336 1 72.6398 7.02823 59.0544 18.3858L59.6958 19.153ZM82.7258 41.5376C82.7258 32.2309 84.7969 23.53 88.9818 17.1893L88.1472 16.6384C83.8226 23.1909 81.7258 32.1021 81.7258 41.5376H82.7258ZM110.522 107.274C92.2551 83.0478 82.7258 61.3769 82.7258 41.5376H81.7258C81.7258 61.6937 91.4022 83.5776 109.724 107.876L110.522 107.274ZM136.29 50.6237C136.29 76.642 125.787 94.4525 109.811 107.184L110.434 107.966C126.634 95.0564 137.29 76.9647 137.29 50.6237H136.29ZM129.097 19.3425C133.862 27.1701 136.29 38.1517 136.29 50.6237H137.29C137.29 38.043 134.844 26.8602 129.952 18.8226L129.097 19.3425ZM107.935 6.89247C117.322 6.89247 124.359 11.5578 129.097 19.3425L129.952 18.8226C125.059 10.7849 117.72 5.89247 107.935 5.89247V6.89247ZM88.9818 17.1893C93.1402 10.8887 99.3931 6.89247 107.935 6.89247V5.89247C99.0242 5.89247 92.4718 10.086 88.1472 16.6384L88.9818 17.1893ZM107.935 4.89247C98.6552 4.89247 91.8033 9.28344 87.3126 16.0876L88.1472 16.6384C92.4718 10.086 99.0242 5.89247 107.935 5.89247V4.89247ZM130.806 18.3026C125.759 10.0122 118.119 4.89247 107.935 4.89247V5.89247C117.72 5.89247 125.059 10.7849 129.952 18.8226L130.806 18.3026ZM138.29 50.6237C138.29 37.9343 135.826 26.5504 130.806 18.3026L129.952 18.8226C134.844 26.8602 137.29 38.043 137.29 50.6237H138.29ZM110.651 109.071C127.3 95.9636 138.29 77.5091 138.29 50.6237H137.29C137.29 77.1828 126.457 95.3548 110.032 108.285L110.651 109.071ZM110.25 109.386L110.651 109.071L110.032 108.285L109.632 108.6L110.25 109.386ZM109.235 108.889L109.543 109.295L110.34 108.691L110.032 108.285L109.235 108.889ZM80.7258 41.5376C80.7258 62.1248 90.6593 84.3546 109.235 108.889L110.032 108.285C91.5107 83.8226 81.7258 61.8064 81.7258 41.5376H80.7258ZM87.3126 16.0876C82.8483 22.8517 80.7258 31.9734 80.7258 41.5376H81.7258C81.7258 32.1021 83.8226 23.1909 88.1472 16.6384L87.3126 16.0876ZM61.26 136.766L60.7195 135.889L59.8682 136.413L60.4086 137.29L61.26 136.766ZM150.51 235.07C115.266 205.758 82.5019 171.24 61.26 136.766L60.4086 137.29C81.7258 171.887 114.575 206.484 149.871 235.839L150.51 235.07ZM151.082 235.545L150.51 235.07L149.871 235.839L150.443 236.314L151.082 235.545ZM150.342 236.721L150.998 236.371L150.527 235.489L149.871 235.839L150.342 236.721ZM116.672 245.925C128.409 245.925 139.753 242.368 150.342 236.721L149.871 235.839C139.387 241.43 128.204 244.925 116.672 244.925V245.925ZM53.4677 169.441C53.4677 210.299 78.8708 245.925 116.672 245.925V244.925C79.6292 244.925 54.4677 209.979 54.4677 169.441H53.4677ZM59.4697 136.946C55.5889 147.53 53.4677 158.829 53.4677 169.441H54.4677C54.4677 158.957 56.5645 147.774 60.4086 137.29L59.4697 136.946ZM59.8244 135.979L59.4697 136.946L60.4086 137.29L60.7633 136.323L59.8244 135.979ZM55.4677 169.441C55.4677 159.405 57.4138 148.702 60.9991 138.6L60.0567 138.266C56.4368 148.466 54.4677 159.281 54.4677 169.441H55.4677ZM116.672 243.925C80.3868 243.925 55.4677 209.657 55.4677 169.441H54.4677C54.4677 209.979 79.6292 244.925 116.672 244.925V243.925ZM148.746 235.302C138.558 240.635 127.762 243.925 116.672 243.925V244.925C127.962 244.925 138.917 241.575 149.209 236.188L148.746 235.302ZM60.1033 138.697C81.3908 172.933 113.827 207.084 148.657 236.129L149.298 235.361C114.518 206.358 82.1657 172.285 60.9525 138.169L60.1033 138.697Z" fill="#A1A1A1"/>
</svg>
