<svg id="_1" data-name="1" xmlns="http://www.w3.org/2000/svg" viewBox="0 0 24 24"><path d="M22,23.5a.48.48,0,0,1-.189-.038l-5.376-2.2A13.477,13.477,0,0,1,12,22C5.383,22,0,17.29,0,11.5S5.383,1,12,1,24,5.71,24,11.5a9.713,9.713,0,0,1-2.527,6.442L22.49,22.9a.5.5,0,0,1-.49.6Zm-5.553-3.276a.5.5,0,0,1,.19.037l4.685,1.921-.88-4.287a.5.5,0,0,1,.124-.442A8.634,8.634,0,0,0,23,11.5C23,6.262,18.065,2,12,2S1,6.262,1,11.5,5.935,21,12,21a12.443,12.443,0,0,0,4.276-.746A.5.5,0,0,1,16.447,20.224Z"/><path d="M6,13a1,1,0,1,1,1-1A1,1,0,0,1,6,13Zm0-1H6Z"/><path d="M12,13a1,1,0,1,1,1-1A1,1,0,0,1,12,13Zm0-1h0Z"/><path d="M18,13a1,1,0,1,1,1-1A1,1,0,0,1,18,13Zm0-1h0Z"/></svg>