<svg id="_1" data-name="1" xmlns="http://www.w3.org/2000/svg" viewBox="0 0 24 24"><path d="M21.5,23H2.5A2.5,2.5,0,0,1,0,20.5V5.5A2.5,2.5,0,0,1,2.5,3h19A2.5,2.5,0,0,1,24,5.5v15A2.5,2.5,0,0,1,21.5,23ZM2.5,4A1.5,1.5,0,0,0,1,5.5v15A1.5,1.5,0,0,0,2.5,22h19A1.5,1.5,0,0,0,23,20.5V5.5A1.5,1.5,0,0,0,21.5,4Z"/><path d="M23.5,11.037H.5a.5.5,0,0,1,0-1h23a.5.5,0,0,1,0,1Z"/><path d="M17.5,6a.5.5,0,0,1-.5-.5v-4a.5.5,0,0,1,1,0v4A.5.5,0,0,1,17.5,6Z"/><path d="M6.5,6A.5.5,0,0,1,6,5.5v-4a.5.5,0,0,1,1,0v4A.5.5,0,0,1,6.5,6Z"/></svg>