<svg width="151" height="47" viewBox="0 0 151 47" fill="none" xmlns="http://www.w3.org/2000/svg">
<mask id="mask0" mask-type="alpha" maskUnits="userSpaceOnUse" x="0" y="0" width="17" height="29">
<path fill-rule="evenodd" clip-rule="evenodd" d="M0 0H16.6073V28.8517H0V0Z" fill="white"/>
</mask>
<g mask="url(#mask0)">
<path fill-rule="evenodd" clip-rule="evenodd" d="M16.6073 3.03505C16.6073 5.02829 16.5513 7.01436 16.3922 9.00162C16.0941 12.7228 15.6683 16.4667 14.9276 20.1269C14.5839 21.8245 14.1759 23.5273 13.6405 25.1754C13.3916 25.941 13.0721 26.7011 12.5721 27.337C12.1569 27.864 11.529 28.4709 10.7967 28.3077C10.1665 28.1673 9.71915 27.497 9.37345 26.9991C8.90194 26.3196 8.55505 25.566 8.25698 24.7964C7.60845 23.1235 7.0655 21.4044 6.58803 19.6752C6.08952 17.8703 5.64341 16.049 5.1977 14.2305C4.99409 13.3986 4.84843 12.5536 4.63212 11.725C4.47415 11.1189 4.3015 10.3653 3.92088 9.8227C3.61169 10.2815 3.45055 10.8756 3.27354 11.3735C3.00365 12.1327 2.7671 12.9039 2.54642 13.6787C1.75937 16.4412 1.2057 19.2607 0.802452 22.1037C0.624245 23.3589 0.457152 24.634 0.529784 25.9043C0.561139 26.4557 0.635755 27.0146 0.81039 27.5401C0.875085 27.734 0.949701 27.9271 1.04893 28.1058C1.13346 28.259 1.40336 28.6065 1.51806 28.2367C1.59704 27.9825 1.93242 28.3436 1.88162 28.5259C1.69746 29.1854 1.04972 28.6943 0.825076 28.3572C0.51748 27.8948 0.332923 27.3398 0.209884 26.802C-0.105649 25.4192 -0.0127752 23.9749 0.146778 22.5777C0.324985 21.0185 0.548835 19.4626 0.844523 17.9214C1.14736 16.3438 1.526 14.7807 1.96893 13.2371C2.19001 12.4675 2.43132 11.7034 2.71193 10.9534C2.94133 10.3406 3.15566 9.67986 3.66885 9.24419C3.79863 9.13408 4.09313 9.0487 4.24197 9.17916C4.8 9.66949 5.05481 10.4363 5.2612 11.1321C5.51085 11.9747 5.65968 12.8437 5.85932 13.6991C6.28043 15.5064 6.74996 17.3097 7.24053 19.0995C7.67672 20.691 8.17998 22.2589 8.7412 23.8101C8.99958 24.5239 9.28177 25.2337 9.65724 25.8939C9.96761 26.4397 10.3975 27.1475 10.9595 27.4719C11.6366 27.8625 12.1946 27.0099 12.4863 26.5016C12.8408 25.8844 13.0563 25.1918 13.2515 24.5099C13.6981 22.9527 14.0934 21.3844 14.4049 19.7941C15.0634 16.4344 15.4547 13.0109 15.7492 9.60127C15.9072 7.77639 15.9989 5.94991 15.9985 4.11824C15.9985 3.48149 16.0318 2.84115 15.9409 2.20878C15.8985 1.91195 15.8211 1.60754 15.6698 1.34621C15.604 1.23211 15.5293 1.1176 15.4265 1.03342C15.3622 0.980756 15.3015 0.951632 15.2229 0.927295C15.1912 0.91732 14.9558 0.914528 15.005 0.843112C14.9173 0.970782 14.6752 1.15151 14.5077 1.06973C14.3315 0.983948 14.416 0.758531 14.5034 0.637644C14.7244 0.332433 15.0908 -0.108826 15.5174 0.0244291C15.8469 0.126964 16.0775 0.464491 16.2223 0.759329C16.5672 1.45912 16.6073 2.26783 16.6073 3.03505" fill="black"/>
</g>
<path fill-rule="evenodd" clip-rule="evenodd" d="M17.9693 17.7408C17.9321 17.687 17.8526 17.5102 17.9489 17.462C18.1637 17.3549 18.3944 17.3019 18.6143 17.2096C18.8138 17.1259 19.1761 17.5297 18.945 17.6424C18.8494 17.6894 18.7363 17.7093 18.6355 17.7447C18.5031 17.7905 18.3732 17.8439 18.2428 17.8945C18.1405 17.9343 18.0193 17.8132 17.9693 17.7408M25.3887 22.0298C24.8297 22.4387 24.3414 22.9317 23.7664 23.3207C23.3174 23.6246 22.8492 23.8953 22.3685 24.1466C21.554 24.5731 20.6583 25.0147 19.7131 24.9749C18.9254 24.9422 18.3124 24.55 17.9561 23.8527C17.5982 23.1515 17.5075 22.3125 17.539 21.5372C17.5586 21.0486 17.6362 20.5676 17.7138 20.0857C17.777 19.6927 17.8593 19.3088 18.0413 18.952C18.1392 18.7597 18.6107 19.0655 18.5287 19.2511C18.2956 19.7799 18.2664 20.4206 18.2268 20.9897C18.1936 21.4739 18.1964 21.9617 18.2772 22.4407C18.3891 23.1029 18.6415 23.9264 19.31 24.2267C20.2713 24.6579 21.4341 24.0068 22.2562 23.5453C23.2182 23.0054 24.1119 22.3686 24.9944 21.7092C25.1108 21.622 25.3739 21.5236 25.5038 21.6443C25.6378 21.7685 25.5014 21.9473 25.3887 22.0298" fill="black"/>
<path fill-rule="evenodd" clip-rule="evenodd" d="M43.6002 22.224C42.9216 22.648 42.3312 23.1342 41.5373 23.3232C41.0079 23.4497 40.4602 23.5051 39.9169 23.4732C38.8693 23.4118 37.9613 23.0034 37.0929 22.4366C36.364 21.9607 35.6348 21.2695 34.7236 21.2156C33.8723 21.165 33.1299 21.6436 32.4685 22.1231C32.1019 22.3883 31.7448 22.6659 31.3722 22.9232C31.1094 23.1043 30.7515 23.3492 30.412 23.2866C30.0865 23.2263 29.9604 22.9001 29.909 22.6105C29.8344 22.1901 29.8424 21.7589 29.7777 21.3373C29.7458 21.1299 29.7075 20.8746 29.5835 20.7003C29.4538 20.5184 29.317 20.5962 29.149 20.7055C28.7589 20.9592 28.4162 21.3157 28.0895 21.6444C27.4133 22.3245 26.8333 23.0931 26.1826 23.7963C25.9353 24.0635 25.6213 24.3471 25.2352 24.3595C24.7481 24.3751 24.5845 24.0544 24.5753 23.6284C24.5638 23.1118 24.6447 22.6017 24.7253 22.0927C24.7692 21.8135 24.8191 21.5343 24.855 21.2535C24.8869 21.0022 24.9723 20.6409 24.9188 20.3884C24.857 20.0964 25.2647 20.327 25.3137 20.4869C25.3848 20.7171 25.3568 20.9604 25.3592 21.1993C25.3616 21.4633 25.348 21.727 25.3297 21.9902C25.2902 22.5522 25.2116 23.1238 25.277 23.6874C25.2814 23.7241 25.283 23.8645 25.3237 23.8841C25.3313 23.8876 25.4127 23.8127 25.4438 23.7867C25.6764 23.5909 25.8567 23.34 26.0601 23.1154C26.4168 22.7226 26.7618 22.3185 27.1193 21.926C27.4636 21.5475 27.8194 21.1805 28.2016 20.8395C28.5802 20.5025 28.9651 20.1622 29.445 19.9772C30.3294 19.6365 30.4779 20.7745 30.5205 21.3812C30.5409 21.6695 30.4922 22.1262 30.6406 22.3895C30.8233 22.713 31.3962 22.143 31.5673 22.0166C32.2112 21.5435 32.82 21.017 33.5452 20.6696C34.2453 20.3337 35.0184 20.2328 35.7533 20.5248C36.5555 20.8435 37.2113 21.4745 37.9581 21.8985C38.7815 22.3664 39.6711 22.6173 40.6222 22.557C41.6654 22.4912 42.5502 22.0377 43.5291 21.7282C43.6464 21.6911 43.8068 21.7322 43.8335 21.865C43.8623 22.0086 43.7055 22.1582 43.6002 22.224" fill="black"/>
<path fill-rule="evenodd" clip-rule="evenodd" d="M54.0201 22.3474C53.3821 22.7077 52.8214 23.1423 52.1392 23.4257C51.7075 23.6051 51.2694 23.7693 50.8138 23.8798C49.7621 24.1347 48.6633 23.9641 47.8847 23.1752C47.5466 22.832 47.2794 22.4222 47.0126 22.024C46.878 21.8229 46.7481 21.6127 46.5777 21.4397C46.5016 21.3633 46.4061 21.2655 46.3025 21.2264C46.1603 21.1725 46.1121 21.2275 45.9967 21.3134C45.5446 21.6483 45.1058 22.0046 44.6673 22.3573C44.275 22.6728 43.8875 23.0338 43.3571 23.0623C43.2225 23.0695 43.013 23.0366 42.9843 22.8743C42.9154 22.4824 43.1213 22.1348 43.3001 21.8011C43.5048 21.4199 43.7263 21.0482 44.0154 20.7232C44.3093 20.3927 44.7055 20.0091 45.1305 19.8527C45.4598 19.732 45.7932 19.8123 46.1209 19.8971C46.281 19.9382 46.2926 20.3511 46.1018 20.3091C45.8035 20.2442 45.516 20.1761 45.2408 20.3515C44.9795 20.5186 44.7446 20.7592 44.5431 20.992C44.33 21.239 44.1591 21.5185 44.0082 21.8063C43.9015 22.0101 43.7474 22.2433 43.692 22.4808C43.7904 22.4143 43.8824 22.3359 43.9716 22.2639C44.185 22.0917 44.3993 21.9211 44.6151 21.7524C45.0341 21.4243 45.4662 21.0035 45.9473 20.7739C46.8975 20.3198 47.4427 21.2592 47.9138 21.9132C48.2121 22.3276 48.5323 22.7595 48.9931 23.0061C49.4335 23.2421 49.9405 23.3086 50.4331 23.2468C51.0301 23.1724 51.5964 22.9182 52.1488 22.6938C52.6577 22.4864 53.1711 22.2508 53.6617 22.005C53.7907 21.9405 54.0384 21.8467 54.1627 21.9813C54.281 22.1099 54.14 22.2801 54.0201 22.3474" fill="black"/>
<path fill-rule="evenodd" clip-rule="evenodd" d="M56.9019 24.3744C56.7734 24.4471 56.6449 24.5202 56.5183 24.5961C55.7572 25.0498 55.0391 25.5611 54.3826 26.1563C54.0453 26.4622 53.7268 26.7864 53.4386 27.1388C53.2346 27.3875 53.0004 27.6676 52.8838 27.9719C52.8523 28.0545 52.7816 28.2563 52.8894 28.3136C52.9449 28.3426 53.0822 28.2695 53.1313 28.2496C53.4218 28.132 53.7056 27.9619 53.9742 27.803C54.7741 27.3303 55.4798 26.7053 56.126 26.0442C56.5582 25.6024 57.0033 24.9676 56.9019 24.3744M62.7285 21.7074C62.7333 21.8277 62.5792 21.912 62.4774 21.9255C62.1581 21.9676 61.8412 22.148 61.5347 22.2497C61.2565 22.3422 60.9823 22.44 60.7101 22.548C60.2083 22.7471 59.7202 22.9783 59.2317 23.2063C58.6717 23.4674 58.1125 23.7327 57.5637 24.0176C58.1105 25.3374 55.9743 26.9858 55.0352 27.6786C54.4317 28.124 53.7304 28.5916 53.0135 28.8403C52.7409 28.9349 52.3434 29.0215 52.1742 28.7183C52.0069 28.4196 52.1993 28.0283 52.347 27.7633C52.7848 26.9782 53.4598 26.3 54.1251 25.7049C54.8763 25.0331 55.7045 24.4542 56.5762 23.9481C56.6097 23.9286 56.6433 23.9103 56.6768 23.8909C56.6481 23.8559 56.6173 23.8213 56.583 23.7872C56.1344 23.345 55.4994 23.1952 54.9194 23.0053C54.4217 22.8424 53.7336 22.5746 53.6158 21.9942C53.5376 21.6108 53.7974 21.3001 54.0453 21.0399C54.3494 20.7209 54.7019 20.465 55.1118 20.2978C55.3285 20.21 55.744 20.6084 55.5173 20.6982C55.0583 20.8798 54.5945 21.2231 54.3299 21.6458C54.0425 22.1046 54.5215 22.3677 54.8919 22.515C55.6015 22.7971 56.3583 22.8961 56.9953 23.3513C57.0943 23.4221 57.1801 23.4952 57.2551 23.5699C57.9153 23.2147 58.5907 22.8873 59.2692 22.5683C59.739 22.347 60.2075 22.1237 60.6893 21.9306C60.9507 21.8257 61.2178 21.7252 61.49 21.6529C61.7574 21.5822 62.1885 21.4412 62.4599 21.5111C62.5616 21.5377 62.7225 21.5731 62.7285 21.7074" fill="black"/>
<path fill-rule="evenodd" clip-rule="evenodd" d="M69.7081 18.8466C70.0922 18.3363 70.4834 17.8322 70.8619 17.3259C70.9684 17.1825 71.0748 17.0388 71.1785 16.8927C71.226 16.8258 71.2731 16.7585 71.3189 16.69C71.3301 16.6734 71.3524 16.6385 71.3708 16.6096C71.3616 16.6088 71.356 16.6081 71.3548 16.6081C71.1578 16.612 70.9656 16.6864 70.7945 16.7787C70.4986 16.9375 70.1879 17.1623 70.0391 17.47C69.8469 17.8691 69.736 18.3691 69.7081 18.8466M71.7489 23.5537C71.2193 23.2433 70.73 22.8699 70.306 22.4178C69.8271 21.9066 69.4163 21.2704 69.1989 20.5862C68.9525 20.9481 68.7172 21.3175 68.4998 21.7C68.2537 22.1323 68.0575 22.5203 67.9076 22.9285C67.8705 23.0306 67.8354 23.1344 67.8047 23.2389C67.7903 23.286 67.7775 23.3335 67.7648 23.381C67.7608 23.3945 67.7588 23.4016 67.7576 23.4056C67.7564 23.4127 67.7544 23.4234 67.7516 23.4384C67.7329 23.5339 67.7177 23.6293 67.705 23.7259C67.695 23.8031 67.699 23.7813 67.6994 23.7766C67.6974 23.8185 67.6966 23.8601 67.6974 23.9017C67.6982 23.948 67.701 23.9939 67.705 24.0402C67.7054 24.0521 67.7058 24.0585 67.7058 24.0616C67.707 24.0672 67.709 24.0755 67.7113 24.087C67.7249 24.1566 67.7393 24.2275 67.7648 24.294C67.8238 24.4476 67.89 24.5359 67.9857 24.6302C68.1038 24.7482 68.239 24.8396 68.3873 24.9077C68.4659 24.9429 68.5469 24.977 68.6298 25C68.6318 25.0004 68.6334 25.0007 68.635 25.0011C68.6533 25.0015 68.6733 25.0019 68.692 25C69.5886 24.8891 70.4564 24.3922 71.2061 23.9203C71.3916 23.8039 71.5719 23.6807 71.7489 23.5537M75.9755 24.886C75.4997 24.8298 75.0283 24.7471 74.5625 24.6346C73.8498 24.4628 73.1368 24.2339 72.4652 23.9247C71.9914 24.3024 71.4905 24.6457 70.9712 24.9502C70.513 25.219 70.0344 25.4605 69.5363 25.6478C69.2348 25.7614 68.899 25.8897 68.5715 25.9043C67.9015 25.934 67.2993 25.2907 67.1466 24.69C66.9308 23.8408 67.263 22.9254 67.6148 22.1601C68.0036 21.3132 68.5014 20.5226 69.041 19.7584C69.037 19.6963 69.035 19.6333 69.035 19.5708C69.0354 18.8462 69.173 18.0441 69.4765 17.3829C69.8178 16.6386 70.5975 15.9216 71.4346 15.7976C71.8334 15.7383 72.1928 15.8131 72.1186 16.27C72.0691 16.574 71.8753 16.8548 71.7098 17.1066C71.1048 18.0271 70.4216 18.8906 69.7724 19.7782C69.9826 20.7455 70.643 21.6185 71.3218 22.3054C71.6273 22.6138 71.9523 22.8922 72.2957 23.138C72.523 22.9551 72.7439 22.7655 72.9609 22.5695C73.2911 22.2706 73.6042 21.9554 73.8965 21.6201C74.0915 21.3968 74.3045 21.1751 74.4796 20.9371C74.6674 20.6813 74.793 20.3808 74.955 20.1092C75.0878 19.8863 75.7203 20.0645 75.5683 20.327C75.4112 20.599 75.1938 20.8425 75.0124 21.0994C74.821 21.3702 74.6459 21.6517 74.4453 21.9154C73.9966 22.5042 73.4833 23.0478 72.9238 23.5403C73.7928 24.0348 74.7583 24.3401 75.7953 24.4303C76.0042 24.4485 76.2379 24.9169 75.9755 24.886" fill="black"/>
<path fill-rule="evenodd" clip-rule="evenodd" d="M95.216 26.4584C93.1763 27.9658 91.2555 29.6329 89.4789 31.4036C87.567 33.3091 85.8194 35.3808 84.2349 37.563C83.4584 38.6324 82.7377 39.7429 82.1251 40.9144C82.0159 41.1228 81.9106 41.3328 81.8118 41.5466C81.8107 41.5485 81.8103 41.5497 81.8095 41.5512C81.808 41.5547 81.806 41.5585 81.8041 41.5635L81.7763 41.6245C81.7539 41.6748 81.7312 41.7251 81.7092 41.7758C81.6544 41.8998 81.6008 42.0238 81.5483 42.1485C81.2825 42.778 81.0387 43.4187 80.8446 44.0739C80.6838 44.6155 80.5032 45.2412 80.5935 45.8113C80.6205 45.9844 80.6795 46.149 80.8396 46.2377C81.1051 46.3843 81.5734 46.1936 81.8481 46.0377C82.8781 45.4531 83.7527 44.5238 84.5131 43.6344C86.2202 41.6384 87.7587 39.4684 89.2155 37.287C90.742 35.0015 92.1575 32.64 93.4506 30.216C94.103 28.9942 94.6844 27.7371 95.216 26.4584M104.354 21.203C104.064 21.2383 103.768 21.4656 103.518 21.5853C103.2 21.7377 102.88 21.8863 102.562 22.0364C100.306 23.1004 98.1397 24.384 96.0861 25.8319C96.0333 25.9617 95.98 26.091 95.9268 26.2204C95.0364 28.3788 93.977 30.4436 92.8139 32.468C90.564 36.3833 88.0286 40.1812 85.1464 43.6666C84.4836 44.4677 83.7726 45.2281 82.9582 45.8795C82.3255 46.3854 81.4478 47.1535 80.5582 46.9731C79.5845 46.7758 79.9348 45.2719 80.0957 44.6335C80.7789 41.9189 82.2325 39.4465 83.8683 37.2009C86.5395 33.5332 89.6736 30.2324 93.2097 27.38C93.9817 26.7574 94.771 26.1555 95.5757 25.5751C95.9847 24.541 96.3647 23.495 96.7246 22.4444C97.1879 21.0929 97.5656 19.7267 97.8442 18.3257C97.9757 17.6635 98.0726 16.9933 98.2134 16.3334C98.2635 16.0981 98.4171 15.6709 98.2759 15.4348C97.9892 15.5131 97.7605 15.7415 97.5448 15.9385C96.2053 17.1591 94.857 18.3667 93.4998 19.5674C92.1233 20.785 90.7611 22.0195 89.326 23.1687C88.1308 24.1261 86.855 25.1356 85.3408 25.5264C84.6151 25.7137 83.8224 25.7298 83.1264 25.4216C82.4933 25.141 82.1936 24.5571 82.0527 23.9081C81.7001 22.2859 82.4659 20.8353 83.0728 19.3755C83.7197 17.819 84.4813 16.3054 85.3913 14.8836C86.2844 13.4883 87.3253 12.1613 88.5644 11.0528C89.7284 10.0117 91.1222 9.15651 92.6939 8.93042C94.0303 8.73811 95.7393 9.03598 96.6062 10.1718C97.2825 11.0577 97.5479 12.5494 97.1216 13.5877C97.0491 13.7655 96.8851 13.6369 96.943 13.4872C97.2474 12.6991 97.0672 11.6761 96.7281 10.9315C95.8894 9.09087 93.2869 9.07398 91.6681 9.69967C89.8075 10.419 88.3256 11.9256 87.1258 13.4676C85.8516 15.1059 84.8389 16.9384 84.0048 18.8323C83.5994 19.7521 83.1522 20.6848 82.8606 21.6475C82.5986 22.5124 82.5558 23.4674 82.9539 24.3019C83.3625 25.1586 84.4415 25.2339 85.2667 25.0377C86.176 24.822 87.0028 24.3195 87.7535 23.7806C89.6686 22.406 91.4069 20.7808 93.1661 19.2189C94.0434 18.4397 94.9322 17.6742 95.7949 16.8789C96.2231 16.4839 96.6532 16.0912 97.0842 15.6993C97.4283 15.3861 97.7794 15.0506 98.2222 14.8806C98.3974 14.8134 98.6589 14.7182 98.8233 14.8429C98.9417 14.9331 98.9846 15.0813 99.0023 15.2226C99.044 15.5558 98.944 15.8786 98.8796 16.2018C98.6667 17.2697 98.4792 18.4677 98.211 19.5739C97.767 21.4065 97.1301 23.2079 96.433 24.969C97.1795 24.4531 97.9391 23.9564 98.7133 23.4835C99.6848 22.8897 100.677 22.3227 101.699 21.8195C102.232 21.5566 102.773 21.309 103.31 21.0541C103.773 20.8345 104.288 20.4825 104.822 20.5486C104.894 20.557 104.953 20.5908 104.98 20.6618C104.995 20.7036 105.011 20.7455 105.026 20.7873C105.135 21.0836 104.484 21.5404 104.354 21.203" fill="black"/>
<path fill-rule="evenodd" clip-rule="evenodd" d="M114.817 22.4354C114.192 22.7786 113.643 23.1927 112.976 23.4628C112.553 23.6336 112.124 23.7901 111.678 23.8954C110.648 24.1383 109.572 23.9757 108.811 23.224C108.479 22.8974 108.218 22.5067 107.957 22.1272C107.825 21.9356 107.698 21.7354 107.531 21.5705C107.456 21.4977 107.363 21.4046 107.262 21.3672C107.122 21.316 107.075 21.3684 106.962 21.4502C106.519 21.7693 106.09 22.1087 105.661 22.4448C105.277 22.7454 104.897 23.0894 104.378 23.1165C104.246 23.1233 104.041 23.092 104.013 22.9374C103.946 22.564 104.147 22.2328 104.323 21.9149C104.523 21.5517 104.739 21.1975 105.022 20.8879C105.31 20.5729 105.698 20.2075 106.114 20.0585C106.436 19.9435 106.763 20.02 107.084 20.1007C107.241 20.14 107.252 20.5333 107.065 20.4934C106.773 20.4315 106.491 20.3666 106.222 20.5337C105.966 20.6929 105.736 20.9222 105.539 21.144C105.33 21.3793 105.163 21.6456 105.016 21.9198C104.911 22.114 104.76 22.3362 104.706 22.5625C104.802 22.4995 104.892 22.4244 104.979 22.3558C105.188 22.1917 105.398 22.0292 105.61 21.8685C106.02 21.5558 106.443 21.1549 106.914 20.9362C107.844 20.5036 108.378 21.3986 108.839 22.0216C109.131 22.4165 109.444 22.828 109.896 23.063C110.327 23.2878 110.823 23.3511 111.305 23.2923C111.89 23.2214 112.444 22.9792 112.985 22.7654C113.483 22.5678 113.986 22.3433 114.466 22.1091C114.592 22.0476 114.834 21.9583 114.956 22.0865C115.072 22.2091 114.934 22.3713 114.817 22.4354" fill="black"/>
<path fill-rule="evenodd" clip-rule="evenodd" d="M123.815 21.9852C123.214 22.4828 122.637 22.97 121.775 22.9991C121.18 23.0189 120.715 22.716 120.358 22.3098C119.987 21.8883 119.771 21.384 119.471 20.9225C119.176 20.4682 118.796 20.1194 118.198 20.3682C117.19 20.7875 116.498 21.7189 115.698 22.381C115.411 22.6186 115.075 22.8779 114.687 22.9581C114.436 23.0099 114.206 22.9409 114.078 22.7339C113.941 22.5138 114.016 22.2564 114.065 22.0252C114.206 21.3754 114.379 20.7394 114.59 20.1053C114.708 19.7505 114.836 19.3988 114.966 19.0474C115.086 18.724 115.177 18.3629 115.371 18.0698C115.445 17.8549 115.736 18.194 115.741 18.3133C115.75 18.6114 115.612 18.9329 115.531 19.2212C115.446 19.5286 115.364 19.8363 115.278 20.1437C115.103 20.773 114.937 21.4022 114.792 22.0378C114.729 22.3183 114.769 22.384 115.022 22.2243C115.138 22.1501 115.245 22.0595 115.347 21.97C115.628 21.7249 115.896 21.4671 116.164 21.2101C116.573 20.8177 116.982 20.4201 117.449 20.0825C117.832 19.8043 118.284 19.4887 118.794 19.4607C119.86 19.4025 120.231 20.7689 120.685 21.4097C120.931 21.7573 121.289 22.0975 121.769 22.1352C122.03 22.1557 122.321 22.0807 122.56 21.9938C122.647 21.9625 123.437 21.6182 123.45 21.6365C123.412 21.582 123.846 21.4421 123.947 21.5395C124.083 21.6689 123.927 21.892 123.815 21.9852" fill="black"/>
<path fill-rule="evenodd" clip-rule="evenodd" d="M133.817 22.4354C133.192 22.7786 132.643 23.1927 131.975 23.4628C131.553 23.6336 131.124 23.7901 130.678 23.8954C129.648 24.1383 128.573 23.9757 127.811 23.224C127.48 22.8974 127.218 22.5067 126.957 22.1272C126.825 21.9356 126.698 21.7354 126.531 21.5705C126.457 21.4977 126.363 21.4046 126.262 21.3672C126.122 21.316 126.075 21.3684 125.962 21.4502C125.52 21.7693 125.09 22.1087 124.661 22.4448C124.277 22.7454 123.898 23.0894 123.378 23.1165C123.246 23.1233 123.041 23.092 123.013 22.9374C122.946 22.564 123.147 22.2328 123.322 21.9149C123.523 21.5517 123.74 21.1975 124.023 20.8879C124.31 20.5729 124.698 20.2075 125.114 20.0585C125.437 19.9435 125.763 20.02 126.084 20.1007C126.241 20.14 126.252 20.5333 126.065 20.4934C125.773 20.4315 125.492 20.3666 125.222 20.5337C124.967 20.6929 124.737 20.9222 124.539 21.144C124.331 21.3793 124.163 21.6456 124.016 21.9198C123.911 22.114 123.76 22.3362 123.706 22.5625C123.802 22.4995 123.892 22.4244 123.98 22.3558C124.189 22.1917 124.399 22.0292 124.61 21.8685C125.02 21.5558 125.443 21.1549 125.914 20.9362C126.844 20.5036 127.378 21.3986 127.839 22.0216C128.131 22.4165 128.444 22.828 128.896 23.063C129.327 23.2878 129.823 23.3511 130.305 23.2923C130.89 23.2214 131.444 22.9792 131.985 22.7654C132.483 22.5678 132.986 22.3433 133.466 22.1091C133.592 22.0476 133.835 21.9583 133.956 22.0865C134.072 22.2091 133.934 22.3713 133.817 22.4354" fill="black"/>
<path fill-rule="evenodd" clip-rule="evenodd" d="M141.833 21.9852C141.293 22.4828 140.774 22.97 139.998 22.9991C139.462 23.0189 139.044 22.716 138.722 22.3098C138.389 21.8883 138.194 21.384 137.924 20.9225C137.658 20.4682 137.317 20.1194 136.778 20.3682C135.871 20.7875 135.249 21.7189 134.528 22.381C134.27 22.6186 133.967 22.8779 133.618 22.9581C133.393 23.0099 133.186 22.9409 133.07 22.7339C132.947 22.5138 133.014 22.2564 133.059 22.0252C133.186 21.3754 133.34 20.7394 133.531 20.1053C133.637 19.7505 133.753 19.3988 133.87 19.0474C133.977 18.724 134.06 18.3629 134.234 18.0698C134.3 17.8549 134.563 18.194 134.567 18.3133C134.575 18.6114 134.45 18.9329 134.379 19.2212C134.302 19.5286 134.227 19.8363 134.15 20.1437C133.993 20.773 133.844 21.4022 133.713 22.0378C133.656 22.3183 133.692 22.384 133.92 22.2243C134.025 22.1501 134.12 22.0595 134.212 21.97C134.465 21.7249 134.706 21.4671 134.948 21.2101C135.316 20.8177 135.684 20.4201 136.104 20.0825C136.449 19.8043 136.855 19.4887 137.315 19.4607C138.274 19.4025 138.608 20.7689 139.017 21.4097C139.238 21.7573 139.56 22.0975 139.992 22.1352C140.227 22.1557 140.489 22.0807 140.704 21.9938C140.782 21.9625 141.493 21.6182 141.505 21.6365C141.471 21.582 141.861 21.4421 141.953 21.5395C142.074 21.6689 141.935 21.892 141.833 21.9852" fill="black"/>
<path fill-rule="evenodd" clip-rule="evenodd" d="M143.577 20.6774C143.468 20.6894 143.361 20.7241 143.255 20.7657C143.002 20.8667 142.768 21.0198 142.561 21.1964C142.274 21.4408 142.041 21.7411 141.847 22.0634C141.786 22.1652 141.726 22.2693 141.673 22.3757C141.661 22.3988 141.649 22.4231 141.637 22.4474C141.709 22.4027 141.771 22.3649 141.786 22.3537C141.984 22.2053 142.172 22.043 142.355 21.8764C142.697 21.5661 143.036 21.2526 143.353 20.9157C143.427 20.8363 143.502 20.7565 143.577 20.6774M145.463 23.779C145.223 23.9097 144.986 24.0435 144.751 24.1819C143.238 25.0733 141.794 26.1524 140.63 27.4782C139.625 28.6221 138.655 30.0092 138.408 31.5452C138.308 32.1728 138.348 32.9354 138.843 33.4019C139.409 33.9363 140.24 33.969 140.955 33.7805C142.437 33.39 143.595 32.1169 144.318 30.8177C145.111 29.3924 145.515 27.8298 145.552 26.2017C145.57 25.3998 145.543 24.5867 145.463 23.779M150.254 21.839C149.237 22.1567 148.231 22.4748 147.253 22.9012C146.886 23.0612 146.523 23.2324 146.165 23.4124C146.227 24.0747 146.25 24.7386 146.253 25.3813C146.26 27.0815 145.958 28.6911 145.226 30.2328C144.577 31.6003 143.631 32.8552 142.383 33.7261C141.269 34.503 139.48 35.0871 138.326 34.0562C137.225 33.0715 137.761 31.2329 138.274 30.0983C138.928 28.6514 139.966 27.3221 141.13 26.2499C142.328 25.1446 143.629 24.2097 145.051 23.4143C145.167 23.3496 145.283 23.2859 145.399 23.2231C145.308 22.5326 145.174 21.8495 144.992 21.184C144.933 20.9701 144.866 20.7557 144.768 20.5556C144.744 20.5059 144.682 20.4295 144.657 20.3706C144.523 20.4932 144.39 20.6154 144.261 20.7422C144.273 20.8933 144.198 21.051 144.011 21.174C143.941 21.2203 143.916 21.1713 143.914 21.1007C143.389 21.6544 142.84 22.2014 142.228 22.6548C141.964 22.8503 141.704 23.0747 141.357 23.0677C141.136 23.0631 140.907 22.9621 140.892 22.7146C140.88 22.4937 141.024 22.257 141.128 22.0734C141.305 21.7619 141.507 21.4662 141.748 21.2018C142.218 20.6871 143.088 20.0502 143.83 20.283C143.866 20.2946 143.901 20.3081 143.934 20.3239C143.996 20.2665 144.06 20.2102 144.125 20.1558C144.365 19.9588 144.689 19.7741 145.01 19.8574C145.327 19.9395 145.473 20.3386 145.574 20.6134C145.836 21.3244 146 22.0839 146.102 22.8549C146.484 22.6622 146.872 22.479 147.265 22.3086C147.67 22.1336 148.078 21.9809 148.503 21.8575C148.965 21.7226 149.441 21.6397 149.897 21.4813C150.041 21.4312 150.269 21.4258 150.379 21.5584C150.493 21.6952 150.397 21.7943 150.254 21.839" fill="black"/>
</svg>
