<svg width="262" height="304" viewBox="0 0 262 304" fill="none" xmlns="http://www.w3.org/2000/svg">
<path d="M143.405 302.992C187.541 302.992 226.059 289.338 248.528 274.077L248.534 209.223C248.619 181.742 249.854 164.773 261.368 163.237V160.827H149.022V163.237C172.294 164.843 173.899 183.316 173.899 213.035V259.62C173.899 282.912 168.683 297.37 146.214 297.37C94.8556 297.37 83.2198 232.713 83.2198 151.59C83.2198 68.0585 98.4667 6.61434 148.22 6.61434C189.948 6.61434 218.035 45.9707 240.504 95.7686H242.911V15.4495C223.652 9.02392 191.954 0.992004 150.226 0.992004C66.368 0.992004 1.36798 63.2393 1.36798 152.795C1.36798 245.162 52.726 302.992 143.405 302.992Z" stroke="#A1A1A1"/>
</svg>
