<svg xmlns="http://www.w3.org/2000/svg" viewBox="0 0 315.97 338.89"><g id="Layer_2" data-name="Layer 2"><g id="Layer_1-2" data-name="Layer 1"><path d="M128.32,2c1,3.41.73,2.92-29,57.44,8.76.24,5.36,0,8.28.24,1.46,0,1,2-.25,2.19-11.92,1.22-6.57-5.35-14.6,9.5C84.26,86.9,78.18,98.1,76.23,115.62c-.49,4.38-11.2-.73,14.12-54-26,0-10.23-3.16-47.47,28C13.19,114.65-8,109.05,12.46,79.6c10.71-15.33,16.31-13.87-1-10.95-8.77,1.7-9.25,1.7-10.23,1.22C-1.9,68.16,1.75,65,2.72,66.7c.74,1.46-.24,0,23.61-3.41,11.44-10.95,25.32-20.2,40.41-25.07a1.54,1.54,0,0,1,1,2.92C54.08,46.26,41.67,53.07,31,62.81,77.45,57,62.84,66.7,88.4,39.68,112,14.61,122.23-.48,126.37,0,127.34.26,127.83.74,128.32,2Zm-101,64.25c-7.55,7.31-18,20.94-20,28-1.22,4.14.49,9.5,5.6,8.28C29,99.32,48.73,79.6,66.25,62.08,51.16,63.05,39.48,64.51,27.31,66.21Zm64-7c5.6-11.2,9.25-18.5,19.47-37.49C69.42,67.92,69.17,59.16,91.32,59.16Z"/><path d="M112.74,66.21c10.71,1,22.39,1.22,31.39-5.35,3.9-2.68,1,10.47-32.61,7.3-1.7,3.41,4.38,18-1.46,42.35-8,32.62-25.8,20-13.14-23.12,7.3-25.56,31.39-65.47,38-66.69h.74C143.16,20.7,125.64,42.61,112.74,66.21ZM109.57,103a89.68,89.68,0,0,0-.24-30.18C82.8,126.09,102.51,148,109.57,103Z"/><path d="M221.53,20.46c-8.27,17-14.6,30.42-22.39,47.21a63.19,63.19,0,0,0,30.67-7.05c1-.49,1.7.73.73,1.46-19.72,10.71-31.16,5.11-32.62,8.76,2.19,9.25-3.16,32.37-5.35,40.89-9.25,33.83-20.69,27.75-17.77,1.46C176.26,98.1,190.13,69.13,196,56.24c15.34-33.35,15.58-28.48,1.22-13.88-8.27,8.52-30.18,30.18-40.64,35.78C139,87.88,134.15,77.65,139,65c5.84-14.36,12.17-10.47,11.93-7.3-.25,4.62-15.09,23.85.48,19.47,11.2-3.17,53.79-41.38,63.29-60.61a3,3,0,0,1,2.92-1.95C220.31,14.61,223,17.54,221.53,20.46ZM154.6,47.72c2.19,7.06-12.17,5.84-6.57-1.71a5.35,5.35,0,0,1,2.67-1.21A4.16,4.16,0,0,1,154.6,47.72Zm29,61.33c-10.71,41.87,5.6,18,11.93-21.66C197,77.9,197,74.49,196,74.73,193.54,75.22,183.56,108.08,183.56,109.05Z"/><path d="M158.3,238.67a2.33,2.33,0,0,1-2.19,3.89c-6.33-1.46-12.42-3.89-18.74-4.62-12.42-1.22-35.54,4.62-31.4,11.68,2.68,4.38,13.14,7.79,19.23,8.28,2.92.24,3.89,4.62.73,5.35-13.39,2.44-49.17,30.18-39.19,58.41,3.65,10.47,14.6,17,32.37,11.93,23.61-7.06,45-28.23,61.34-46.73,1-1.22,2.67,0,1.7,1.22-11,12.17-21.18,23.61-34.07,33.58-63,48.44-99.8-16.55-42.6-56.22,9.49-6.57,11.44-3.65,6.09-6.08-27.51-11.93-2.92-29.45,21.41-29.7C142.48,229.42,152,232.1,158.3,238.67Z"/><path d="M222.8,234.29c-45.27,49.65-64.5,116.1-30.43,82.51,30.67-30.43,41.62-58.66,62.07-84,2.67-3.41,9.25.73,5.35,5.59-16.06,20-23.61,35.05-33.1,56-29,64,30.42-.24,39.43-7.54,1-.73,2.43.73,1.46,1.46-16.55,13.14-40.65,44.05-50.14,35.29-5.35-4.87-.73-23.61,1.7-30.66,4.87-13.64,9.25-17.29-4.86,1-8,10.22-20.2,26.53-29.94,32.86-22.64,14.84-21.42-41.14,33.1-97.85a3.88,3.88,0,0,1,2.92-1.22C223,228,225.47,231.61,222.8,234.29Z"/><path d="M285.59,282.48c3.16-6.33,8-3.17,6.81-.49-.73,1.71-1.7,2.92-1.94,4.63-.73,3.65,1.46,8,5.35,9,6.09,1.46,14.12-5.11,19.23-9,.73-.49,1.22.73.73,1.21-6.33,4.63-14.6,12.17-23.12,10.23-3.41-1-6.82-3.9-7.79-7.31-1.71-5.84,3.89-6.32-10.95,5.85-4.39,3.65-8.77,5.59-11.44,1-4.87-8,6.81-20.2,15.82-20C281.21,277.61,283.88,279.07,285.59,282.48Zm-12.9,3.65c-8,6.33-12.17,22.15,11.93-1.46a4.83,4.83,0,0,0-3.66-1.22A17.49,17.49,0,0,0,272.69,286.13Z"/><path d="M167.53,177.39c-13.84,13.5-20.93,5.4-11.14,22.28a34.42,34.42,0,0,0,3.71-9.11c1-2.37,8.78-3.72-.67,9.78-2,2.37-2.37.34,3.37,9.45.68,1,.34,7.77-8.1-3.71-17.55,19.24-40.5-9.11-9.11-26.33-.34-20.25,12.15-29.7,21.94-30C178.33,149,186.09,159.5,167.53,177.39Zm-19.24,30.72c9.11-4.73,2.7-3.72-1-18.23C126,199,136.47,214.52,148.29,208.11ZM150,177.39c7.42-3.71,14.17-8.77,18.56-17.89,1.69-3,.34-4.72-2-5.06C161.45,154.1,150.31,161.87,150,177.39Z"/></g></g></svg>