<svg width="623" height="531" viewBox="0 0 623 531" fill="none" xmlns="http://www.w3.org/2000/svg">
<mask id="mask0" mask-type="alpha" maskUnits="userSpaceOnUse" x="0" y="1" width="135" height="235">
<path fill-rule="evenodd" clip-rule="evenodd" d="M0 1.71948H134.494V235.376H0V1.71948Z" fill="white"/>
</mask>
<g mask="url(#mask0)">
<path fill-rule="evenodd" clip-rule="evenodd" d="M134.494 26.2989C134.494 42.4412 134.041 58.5254 132.752 74.6193C130.338 104.755 126.889 135.076 120.892 164.717C118.108 178.466 114.804 192.256 110.468 205.603C108.452 211.804 105.865 217.959 101.815 223.109C98.4526 227.377 93.3676 232.292 87.4373 230.97C82.333 229.833 78.7105 224.405 75.9108 220.372C72.0922 214.87 69.283 208.766 66.869 202.534C61.6169 188.986 57.2198 175.063 53.353 161.06C49.3158 146.443 45.703 131.693 42.0933 116.966C40.4444 110.229 39.2647 103.385 37.513 96.6745C36.2337 91.7666 34.8355 85.6631 31.753 81.2689C29.249 84.9846 27.944 89.7956 26.5105 93.828C24.3248 99.9767 22.409 106.222 20.6219 112.497C14.248 134.869 9.76404 157.703 6.49832 180.727C5.05511 190.892 3.70189 201.219 4.29011 211.506C4.54404 215.972 5.14832 220.498 6.56261 224.754C7.08654 226.324 7.69082 227.888 8.49439 229.335C9.17904 230.576 11.3648 233.39 12.2937 230.395C12.9333 228.337 15.6494 231.261 15.238 232.738C13.7465 238.079 8.50082 234.101 6.68154 231.371C4.19046 227.626 2.69582 223.132 1.69939 218.776C-0.855964 207.577 -0.103821 195.881 1.18832 184.566C2.63154 171.939 4.44439 159.338 6.83904 146.856C9.29154 134.08 12.358 121.421 15.9451 108.92C17.7355 102.688 19.6897 96.5001 21.9622 90.4257C23.8201 85.4628 25.5558 80.1121 29.7119 76.5838C30.763 75.692 33.148 75.0006 34.3533 76.0572C38.8726 80.0281 40.9362 86.2382 42.6076 91.8732C44.6294 98.6972 45.8347 105.734 47.4515 112.662C50.8619 127.298 54.6644 141.903 58.6373 156.397C62.1698 169.286 66.2455 181.984 70.7905 194.546C72.883 200.327 75.1683 206.075 78.209 211.422C80.7226 215.842 84.2037 221.574 88.7551 224.201C94.2387 227.364 98.758 220.46 101.12 216.343C103.991 211.345 105.736 205.736 107.318 200.214C110.934 187.603 114.135 174.902 116.658 162.023C121.991 134.814 125.16 107.088 127.545 79.4756C128.824 64.6968 129.567 49.905 129.564 35.0712C129.564 29.9144 129.834 24.7286 129.098 19.6074C128.754 17.2035 128.127 14.7382 126.902 12.6218C126.369 11.6977 125.764 10.7704 124.932 10.0887C124.411 9.66217 123.919 9.4263 123.283 9.2292C123.026 9.14843 121.12 9.12581 121.518 8.54745C120.808 9.58139 118.847 11.0451 117.491 10.3827C116.064 9.68801 116.748 7.86247 117.455 6.88346C119.246 4.4117 122.213 0.838149 125.668 1.91732C128.336 2.7477 130.203 5.48118 131.377 7.86893C134.17 13.5362 134.494 20.0856 134.494 26.2989Z" fill="black"/>
</g>
<path fill-rule="evenodd" clip-rule="evenodd" d="M145.525 145.394C145.224 144.958 144.58 143.526 145.36 143.136C147.099 142.269 148.967 141.84 150.748 141.092C152.364 140.414 155.298 143.684 153.427 144.597C152.653 144.978 151.736 145.139 150.92 145.426C149.848 145.797 148.796 146.229 147.74 146.638C146.911 146.961 145.93 145.98 145.525 145.394ZM205.618 180.129C201.091 183.441 197.137 187.433 192.48 190.584C188.843 193.044 185.051 195.237 181.159 197.272C174.563 200.726 167.309 204.302 159.654 203.98C153.274 203.715 148.31 200.539 145.425 194.892C142.527 189.213 141.791 182.418 142.047 176.139C142.206 172.183 142.834 168.287 143.462 164.385C143.974 161.202 144.641 158.093 146.115 155.204C146.908 153.646 150.726 156.123 150.062 157.625C148.174 161.908 147.938 167.097 147.617 171.705C147.348 175.627 147.371 179.577 148.025 183.457C148.932 188.82 150.975 195.489 156.39 197.92C164.174 201.413 173.591 196.14 180.249 192.402C188.04 188.03 195.278 182.873 202.425 177.533C203.367 176.826 205.498 176.03 206.55 177.007C207.635 178.013 206.531 179.461 205.618 180.129Z" fill="black"/>
<path fill-rule="evenodd" clip-rule="evenodd" d="M353.082 181.701C347.587 185.135 342.805 189.072 336.376 190.603C332.089 191.627 327.653 192.076 323.253 191.818C314.769 191.321 307.416 188.013 300.383 183.423C294.48 179.569 288.574 173.971 281.195 173.535C274.301 173.125 268.289 177.001 262.932 180.884C259.963 183.032 257.071 185.28 254.054 187.364C251.925 188.83 249.027 190.813 246.278 190.306C243.641 189.819 242.62 187.176 242.204 184.831C241.6 181.426 241.664 177.934 241.141 174.52C240.882 172.84 240.572 170.773 239.567 169.361C238.517 167.888 237.409 168.518 236.049 169.403C232.89 171.458 230.114 174.346 227.468 177.007C221.992 182.515 217.295 188.74 212.026 194.435C210.023 196.599 207.48 198.895 204.353 198.996C200.408 199.122 199.083 196.524 199.009 193.075C198.915 188.891 199.571 184.76 200.224 180.638C200.579 178.377 200.983 176.116 201.274 173.842C201.532 171.807 202.224 168.88 201.791 166.835C201.29 164.471 204.592 166.338 204.989 167.633C205.564 169.497 205.338 171.468 205.357 173.402C205.377 175.541 205.267 177.676 205.118 179.808C204.798 184.359 204.162 188.988 204.692 193.553C204.727 193.85 204.74 194.987 205.07 195.145C205.131 195.174 205.79 194.567 206.042 194.357C207.926 192.771 209.386 190.739 211.034 188.92C213.922 185.739 216.717 182.466 219.611 179.288C222.399 176.222 225.281 173.251 228.376 170.489C231.442 167.759 234.56 165.004 238.446 163.505C245.609 160.746 246.811 169.962 247.156 174.875C247.321 177.211 246.927 180.91 248.129 183.041C249.609 185.661 254.248 181.045 255.634 180.021C260.848 176.19 265.778 171.926 271.652 169.113C277.322 166.393 283.583 165.576 289.534 167.94C296.031 170.521 301.342 175.631 307.39 179.065C314.058 182.854 321.263 184.886 328.965 184.398C337.413 183.865 344.579 180.192 352.507 177.686C353.457 177.385 354.756 177.718 354.972 178.794C355.205 179.957 353.935 181.168 353.082 181.701Z" fill="black"/>
<path fill-rule="evenodd" clip-rule="evenodd" d="M437.484 182.701C432.317 185.618 427.776 189.138 422.251 191.433C418.755 192.886 415.207 194.216 411.518 195.111C403 197.175 394.102 195.793 387.796 189.404C385.058 186.625 382.894 183.307 380.733 180.081C379.643 178.453 378.592 176.751 377.211 175.35C376.595 174.731 375.821 173.939 374.983 173.622C373.831 173.186 373.441 173.631 372.506 174.327C368.845 177.039 365.291 179.924 361.74 182.781C358.563 185.336 355.425 188.26 351.129 188.49C350.039 188.548 348.343 188.282 348.11 186.968C347.552 183.794 349.22 180.979 350.668 178.277C352.326 175.189 354.119 172.179 356.46 169.547C358.841 166.87 362.05 163.764 365.491 162.497C368.158 161.519 370.858 162.17 373.512 162.856C374.809 163.19 374.902 166.533 373.357 166.194C370.942 165.668 368.613 165.116 366.384 166.537C364.269 167.89 362.366 169.839 360.734 171.724C359.008 173.724 357.625 175.988 356.402 178.318C355.538 179.969 354.29 181.858 353.842 183.781C354.638 183.242 355.383 182.608 356.106 182.024C357.834 180.63 359.569 179.248 361.318 177.882C364.71 175.225 368.21 171.817 372.106 169.957C379.801 166.28 384.216 173.888 388.032 179.184C390.448 182.54 393.041 186.038 396.772 188.035C400.339 189.946 404.445 190.484 408.435 189.984C413.269 189.382 417.855 187.324 422.329 185.506C426.451 183.826 430.608 181.918 434.581 179.928C435.626 179.405 437.632 178.645 438.639 179.735C439.596 180.777 438.455 182.156 437.484 182.701Z" fill="black"/>
<path fill-rule="evenodd" clip-rule="evenodd" d="M460.829 199.116C459.788 199.705 458.747 200.297 457.722 200.911C451.558 204.586 445.743 208.727 440.426 213.546C437.694 216.024 435.115 218.649 432.781 221.503C431.129 223.517 429.232 225.786 428.288 228.25C428.033 228.92 427.461 230.554 428.333 231.017C428.783 231.252 429.895 230.66 430.292 230.499C432.645 229.547 434.944 228.17 437.119 226.883C443.597 223.054 449.312 217.993 454.545 212.639C458.046 209.061 461.65 203.92 460.829 199.116ZM507.999 177.517C508.038 178.492 506.79 179.174 505.966 179.284C503.38 179.625 500.813 181.085 498.331 181.909C496.078 182.659 493.857 183.45 491.653 184.325C487.59 185.937 483.637 187.81 479.68 189.657C475.145 191.771 470.616 193.92 466.172 196.227C470.6 206.915 453.3 220.265 445.695 225.876C440.807 229.483 435.128 233.27 429.322 235.284C427.115 236.049 423.895 236.751 422.525 234.296C421.17 231.876 422.728 228.707 423.924 226.561C427.47 220.203 432.936 214.711 438.325 209.891C444.408 204.451 451.115 199.763 458.175 195.664C458.446 195.506 458.718 195.358 458.989 195.2C458.757 194.917 458.508 194.637 458.23 194.361C454.597 190.78 449.454 189.567 444.757 188.029C440.726 186.71 435.154 184.541 434.2 179.84C433.567 176.735 435.671 174.219 437.678 172.112C440.141 169.528 442.996 167.456 446.315 166.102C448.07 165.391 451.435 168.618 449.599 169.345C445.882 170.815 442.126 173.595 439.983 177.019C437.656 180.735 441.534 182.865 444.534 184.058C450.281 186.343 456.41 187.144 461.569 190.831C462.371 191.404 463.065 191.996 463.673 192.601C469.02 189.724 474.489 187.073 479.984 184.489C483.788 182.697 487.583 180.889 491.485 179.325C493.602 178.476 495.764 177.662 497.969 177.076C500.135 176.504 503.626 175.362 505.824 175.928C506.648 176.143 507.951 176.43 507.999 177.517Z" fill="black"/>
<path fill-rule="evenodd" clip-rule="evenodd" d="M571.303 152.835C574.413 148.702 577.581 144.62 580.647 140.519C581.509 139.359 582.371 138.195 583.211 137.012C583.595 136.47 583.976 135.925 584.348 135.37C584.438 135.235 584.619 134.953 584.768 134.719C584.693 134.713 584.648 134.706 584.639 134.706C583.043 134.738 581.486 135.341 580.101 136.088C577.704 137.374 575.188 139.195 573.983 141.686C572.427 144.918 571.529 148.968 571.303 152.835ZM587.836 190.956C583.547 188.442 579.584 185.418 576.151 181.757C572.272 177.617 568.945 172.464 567.185 166.924C565.189 169.854 563.283 172.846 561.523 175.943C559.53 179.445 557.941 182.587 556.727 185.893C556.426 186.72 556.142 187.56 555.893 188.407C555.777 188.788 555.674 189.173 555.57 189.558C555.538 189.667 555.522 189.724 555.512 189.757C555.502 189.814 555.486 189.901 555.464 190.023C555.312 190.795 555.189 191.568 555.086 192.35C555.005 192.976 555.037 192.799 555.041 192.761C555.024 193.101 555.018 193.437 555.024 193.774C555.031 194.149 555.054 194.521 555.086 194.896C555.089 194.993 555.092 195.044 555.092 195.069C555.102 195.114 555.118 195.182 555.138 195.275C555.247 195.839 555.364 196.413 555.57 196.952C556.048 198.196 556.584 198.911 557.36 199.674C558.316 200.629 559.411 201.37 560.612 201.922C561.248 202.207 561.904 202.483 562.576 202.669C562.592 202.672 562.605 202.675 562.618 202.678C562.766 202.681 562.928 202.685 563.08 202.669C570.34 201.771 577.368 197.747 583.44 193.925C584.942 192.982 586.402 191.985 587.836 190.956ZM622.056 201.745C618.203 201.29 614.385 200.62 610.613 199.709C604.841 198.318 599.066 196.464 593.627 193.96C589.79 197.019 585.733 199.799 581.528 202.265C577.817 204.442 573.941 206.398 569.907 207.914C567.466 208.834 564.746 209.873 562.095 209.992C556.668 210.232 551.791 205.022 550.554 200.158C548.807 193.28 551.498 185.867 554.346 179.669C557.495 172.811 561.526 166.408 565.896 160.219C565.864 159.716 565.848 159.206 565.848 158.699C565.851 152.832 566.965 146.336 569.423 140.981C572.188 134.953 578.502 129.146 585.281 128.143C588.511 127.662 591.421 128.268 590.82 131.968C590.42 134.43 588.85 136.704 587.51 138.743C582.61 146.198 577.078 153.191 571.819 160.38C573.522 168.213 578.87 175.283 584.367 180.846C586.841 183.344 589.474 185.598 592.254 187.589C594.095 186.108 595.885 184.572 597.642 182.985C600.316 180.564 602.851 178.012 605.219 175.296C606.798 173.487 608.523 171.692 609.941 169.765C611.462 167.693 612.479 165.26 613.791 163.06C614.866 161.255 619.989 162.698 618.758 164.824C617.486 167.026 615.725 168.998 614.256 171.079C612.706 173.272 611.288 175.552 609.663 177.688C606.03 182.456 601.873 186.858 597.341 190.847C604.379 194.851 612.198 197.324 620.596 198.055C622.288 198.202 624.181 201.995 622.056 201.745Z" fill="black"/>
<path fill-rule="evenodd" clip-rule="evenodd" d="M139.569 357.58C122.449 370.232 106.326 384.225 91.4143 399.088C75.3658 415.082 60.6969 432.471 47.3976 450.788C40.8792 459.764 34.8302 469.085 29.688 478.919C28.7716 480.668 27.8876 482.431 27.0586 484.225C27.0489 484.242 27.0456 484.251 27.0392 484.264C27.0262 484.293 27.01 484.325 26.9938 484.367L26.7607 484.879C26.5729 485.302 26.3818 485.724 26.1972 486.149C25.7374 487.19 25.2873 488.23 24.8469 489.277C22.6158 494.561 20.5693 499.939 18.9405 505.439C17.5901 509.985 16.0747 515.237 16.8324 520.021C17.0591 521.475 17.5545 522.857 18.8984 523.601C21.1262 524.832 25.0574 523.23 27.363 521.922C36.0089 517.015 43.3499 509.215 49.7324 501.75C64.0613 484.995 76.9752 466.782 89.2026 448.471C102.016 429.288 113.897 409.466 124.751 389.119C130.227 378.864 135.107 368.312 139.569 357.58ZM216.259 313.468C213.821 313.764 211.337 315.671 209.236 316.677C206.567 317.956 203.886 319.203 201.211 320.463C182.278 329.394 164.095 340.168 146.858 352.321C146.415 353.41 145.968 354.496 145.521 355.582C138.047 373.699 129.155 391.03 119.392 408.023C100.507 440.887 79.2258 472.765 55.0333 502.02C49.4701 508.745 43.5021 515.127 36.6663 520.595C31.3557 524.841 23.9888 531.289 16.5215 529.774C8.34837 528.118 11.2886 515.495 12.639 510.136C18.3738 487.351 30.5753 466.598 44.3052 447.75C66.7264 416.964 93.0334 389.258 122.715 365.316C129.194 360.089 135.82 355.037 142.574 350.166C146.007 341.486 149.196 332.706 152.218 323.887C156.107 312.543 159.277 301.076 161.615 289.316C162.719 283.758 163.532 278.132 164.714 272.594C165.135 270.619 166.424 267.033 165.238 265.051C162.832 265.708 160.912 267.626 159.102 269.278C147.859 279.524 136.542 289.661 125.15 299.739C113.596 309.959 102.162 320.321 90.1158 329.967C80.0839 338.003 69.3752 346.477 56.6653 349.757C50.5743 351.329 43.9198 351.464 38.0781 348.877C32.7643 346.522 30.2482 341.621 29.0663 336.173C26.1066 322.557 32.5344 310.381 37.628 298.128C43.0585 285.063 49.4506 272.359 57.0895 260.424C64.5859 248.713 73.3225 237.574 83.7236 228.269C93.4932 219.531 105.193 212.353 118.385 210.455C129.602 208.841 143.947 211.341 151.224 220.875C156.9 228.311 159.128 240.832 155.55 249.547C154.941 251.039 153.565 249.959 154.05 248.703C156.605 242.088 155.093 233.502 152.247 227.251C145.207 211.802 123.362 211.66 109.775 216.912C94.157 222.95 81.7192 235.596 71.6484 248.539C60.9527 262.29 52.4524 277.672 45.4515 293.569C42.0482 301.289 38.2951 309.118 35.847 317.199C33.6483 324.458 33.2889 332.474 36.6307 339.479C40.0599 346.67 49.1171 347.302 56.0436 345.655C63.676 343.844 70.6154 339.627 76.9169 335.103C92.9913 323.565 107.583 309.923 122.349 296.813C129.712 290.273 137.173 283.848 144.414 277.172C148.008 273.857 151.619 270.561 155.236 267.271C158.124 264.642 161.071 261.826 164.788 260.399C166.258 259.835 168.454 259.036 169.833 260.083C170.828 260.84 171.187 262.084 171.336 263.269C171.686 266.066 170.847 268.776 170.306 271.489C168.519 280.452 166.945 290.508 164.694 299.794C160.967 315.175 155.621 330.296 149.77 345.078C156.035 340.748 162.411 336.579 168.911 332.609C177.064 327.625 185.39 322.866 193.968 318.642C198.446 316.435 202.983 314.357 207.49 312.218C211.376 310.375 215.699 307.42 220.184 307.974C220.793 308.045 221.288 308.329 221.508 308.925C221.638 309.276 221.767 309.627 221.897 309.978C222.813 312.466 217.347 316.3 216.259 313.468Z" fill="black"/>
<path fill-rule="evenodd" clip-rule="evenodd" d="M304.486 320.701C299.319 323.618 294.778 327.138 289.253 329.433C285.757 330.886 282.206 332.216 278.519 333.111C269.998 335.175 261.099 333.793 254.797 327.404C252.056 324.628 249.895 321.307 247.734 318.081C246.644 316.453 245.592 314.751 244.209 313.35C243.593 312.731 242.819 311.939 241.983 311.622C240.829 311.186 240.438 311.631 239.503 312.327C235.842 315.039 232.288 317.924 228.74 320.781C225.564 323.336 222.422 326.26 218.126 326.49C217.036 326.548 215.339 326.282 215.11 324.968C214.553 321.794 216.217 318.979 217.668 316.277C219.323 313.189 221.116 310.179 223.457 307.547C225.841 304.87 229.05 301.764 232.491 300.497C235.155 299.519 237.858 300.17 240.513 300.856C241.809 301.19 241.899 304.533 240.355 304.194C237.939 303.668 235.61 303.116 233.385 304.537C231.266 305.89 229.363 307.839 227.734 309.724C226.005 311.724 224.625 313.988 223.403 316.318C222.535 317.969 221.29 319.858 220.842 321.781C221.638 321.246 222.38 320.608 223.103 320.024C224.831 318.63 226.567 317.248 228.318 315.882C231.711 313.225 235.207 309.817 239.103 307.957C246.802 304.28 251.217 311.888 255.033 317.184C257.448 320.54 260.038 324.038 263.773 326.035C267.34 327.946 271.443 328.484 275.436 327.984C280.27 327.382 284.854 325.324 289.33 323.506C293.449 321.826 297.609 319.918 301.583 317.928C302.625 317.405 304.631 316.645 305.637 317.735C306.598 318.777 305.453 320.156 304.486 320.701Z" fill="black"/>
<path fill-rule="evenodd" clip-rule="evenodd" d="M376.536 319.273C371.793 323.552 367.235 327.742 360.423 327.992C355.722 328.162 352.05 325.557 349.229 322.064C346.301 318.439 344.59 314.102 342.223 310.134C339.889 306.227 336.892 303.227 332.162 305.367C324.198 308.973 318.737 316.983 312.413 322.677C310.143 324.72 307.491 326.95 304.426 327.639C302.446 328.085 300.628 327.492 299.615 325.711C298.537 323.819 299.124 321.605 299.517 319.616C300.628 314.028 301.991 308.559 303.66 303.105C304.595 300.055 305.608 297.03 306.634 294.008C307.578 291.227 308.299 288.121 309.828 285.6C310.413 283.752 312.718 286.668 312.75 287.695C312.822 290.258 311.731 293.023 311.098 295.503C310.423 298.146 309.773 300.792 309.098 303.436C307.715 308.847 306.403 314.259 305.26 319.725C304.757 322.138 305.075 322.702 307.072 321.329C307.991 320.691 308.832 319.911 309.64 319.142C311.858 317.034 313.978 314.817 316.094 312.607C319.328 309.232 322.558 305.813 326.243 302.91C329.272 300.517 332.84 297.803 336.876 297.562C345.291 297.062 348.226 308.812 351.813 314.323C353.758 317.313 356.583 320.239 360.371 320.563C362.436 320.739 364.738 320.094 366.628 319.347C367.313 319.077 373.553 316.117 373.653 316.274C373.354 315.805 376.783 314.602 377.585 315.44C378.653 316.553 377.426 318.471 376.536 319.273Z" fill="black"/>
<path fill-rule="evenodd" clip-rule="evenodd" d="M460.484 320.701C455.317 323.618 450.776 327.138 445.251 329.433C441.755 330.886 438.207 332.216 434.518 333.111C426 335.175 417.102 333.793 410.796 327.404C408.058 324.628 405.894 321.307 403.733 318.081C402.643 316.453 401.592 314.751 400.211 313.35C399.595 312.731 398.821 311.939 397.983 311.622C396.831 311.186 396.441 311.631 395.506 312.327C391.845 315.039 388.291 317.924 384.74 320.781C381.563 323.336 378.425 326.26 374.129 326.49C373.039 326.548 371.343 326.282 371.11 324.968C370.552 321.794 372.22 318.979 373.668 316.277C375.326 313.189 377.119 310.179 379.46 307.547C381.841 304.87 385.05 301.764 388.491 300.497C391.158 299.519 393.858 300.17 396.512 300.856C397.809 301.19 397.902 304.533 396.357 304.194C393.942 303.668 391.613 303.116 389.384 304.537C387.269 305.89 385.366 307.839 383.734 309.724C382.008 311.724 380.625 313.988 379.402 316.318C378.538 317.969 377.29 319.858 376.842 321.781C377.638 321.246 378.383 320.608 379.106 320.024C380.834 318.63 382.569 317.248 384.318 315.882C387.71 313.225 391.21 309.817 395.106 307.957C402.801 304.28 407.216 311.888 411.032 317.184C413.448 320.54 416.041 324.038 419.772 326.035C423.339 327.946 427.445 328.484 431.435 327.984C436.269 327.382 440.855 325.324 445.329 323.506C449.451 321.826 453.608 319.918 457.581 317.928C458.626 317.405 460.632 316.645 461.639 317.735C462.596 318.777 461.455 320.156 460.484 320.701Z" fill="black"/>
<path fill-rule="evenodd" clip-rule="evenodd" d="M532.536 319.273C527.793 323.552 523.235 327.742 516.424 327.992C511.723 328.162 508.051 325.557 505.229 322.064C502.301 318.439 500.59 314.102 498.223 310.134C495.889 306.227 492.893 303.227 488.162 305.367C480.198 308.973 474.738 316.983 468.414 322.677C466.144 324.72 463.492 326.95 460.424 327.639C458.447 328.085 456.629 327.492 455.616 325.711C454.538 323.819 455.122 321.605 455.518 319.616C456.629 314.028 457.989 308.559 459.661 303.105C460.596 300.055 461.605 297.03 462.635 294.008C463.579 291.227 464.3 288.121 465.829 285.6C466.414 283.752 468.719 286.668 468.751 287.695C468.823 290.258 467.732 293.023 467.102 295.503C466.427 298.146 465.774 300.792 465.099 303.436C463.716 308.847 462.404 314.259 461.261 319.725C460.758 322.138 461.073 322.702 463.073 321.329C463.995 320.691 464.833 319.911 465.641 319.142C467.858 317.034 469.978 314.817 472.095 312.607C475.329 309.232 478.559 305.813 482.244 302.91C485.273 300.517 488.841 297.803 492.876 297.562C501.291 297.062 504.226 308.812 507.814 314.323C509.758 317.313 512.583 320.239 516.372 320.563C518.436 320.739 520.738 320.094 522.628 319.347C523.313 319.077 529.553 316.117 529.653 316.274C529.355 315.805 532.783 314.602 533.585 315.44C534.653 316.553 533.426 318.471 532.536 319.273Z" fill="black"/>
<path fill-rule="evenodd" clip-rule="evenodd" d="M545.494 309.055C544.58 309.155 543.679 309.447 542.79 309.796C540.668 310.644 538.7 311.929 536.969 313.411C534.562 315.462 532.604 317.983 530.976 320.689C530.462 321.543 529.958 322.417 529.512 323.31C529.412 323.504 529.312 323.708 529.212 323.912C529.813 323.536 530.333 323.219 530.462 323.125C532.126 321.88 533.699 320.517 535.237 319.119C538.109 316.514 540.955 313.883 543.611 311.055C544.235 310.388 544.864 309.718 545.494 309.055ZM561.318 335.089C559.309 336.186 557.316 337.309 555.348 338.471C542.645 345.952 530.523 355.01 520.754 366.139C512.322 375.74 504.177 387.383 502.106 400.276C501.263 405.544 501.602 411.945 505.754 415.861C510.506 420.346 517.478 420.621 523.484 419.038C535.922 415.76 545.646 405.075 551.714 394.169C558.366 382.206 561.758 369.09 562.068 355.424C562.22 348.693 561.997 341.869 561.318 335.089ZM601.528 318.805C592.992 321.472 584.55 324.142 576.338 327.721C573.259 329.064 570.213 330.5 567.205 332.012C567.728 337.571 567.919 343.144 567.945 348.538C568.006 362.809 565.47 376.319 559.322 389.26C553.875 400.739 545.934 411.272 535.46 418.582C526.114 425.103 511.094 430.005 501.408 421.352C492.165 413.087 496.666 397.655 500.969 388.131C506.458 375.986 515.178 364.828 524.941 355.829C535.001 346.551 545.918 338.704 557.855 332.028C558.828 331.484 559.8 330.95 560.776 330.423C560.01 324.627 558.892 318.893 557.361 313.307C556.867 311.511 556.304 309.712 555.484 308.033C555.28 307.615 554.76 306.974 554.55 306.479C553.426 307.508 552.308 308.534 551.223 309.599C551.326 310.867 550.693 312.191 549.129 313.223C548.538 313.611 548.328 313.2 548.312 312.608C543.908 317.255 539.301 321.847 534.161 325.653C531.945 327.293 529.764 329.177 526.85 329.119C524.996 329.08 523.07 328.232 522.951 326.154C522.847 324.3 524.056 322.313 524.931 320.773C526.411 318.158 528.11 315.676 530.136 313.456C534.08 309.136 541.375 303.79 547.604 305.745C547.911 305.842 548.202 305.955 548.476 306.088C549 305.605 549.536 305.133 550.085 304.677C552.095 303.023 554.815 301.473 557.516 302.172C560.172 302.861 561.396 306.211 562.246 308.518C564.443 314.485 565.822 320.86 566.675 327.332C569.886 325.714 573.14 324.177 576.438 322.747C579.837 321.278 583.268 319.996 586.828 318.961C590.711 317.828 594.708 317.132 598.53 315.802C599.738 315.382 601.657 315.336 602.578 316.449C603.534 317.598 602.729 318.43 601.528 318.805Z" fill="black"/>
</svg>
