<svg width="450" height="407" viewBox="0 0 450 407" fill="none" xmlns="http://www.w3.org/2000/svg">
<path opacity="0.374705" fill-rule="evenodd" clip-rule="evenodd" d="M12.8486 237.969C13.5162 235.83 16.3543 238.87 15.9237 240.408C14.3669 245.967 8.88228 241.827 6.98358 238.985C4.37977 235.088 2.81586 230.414 1.77596 225.879C-0.896328 214.225 -0.106004 202.054 1.24333 190.279C2.74991 177.138 4.64405 164.025 7.14844 151.037C9.71166 137.742 12.914 124.567 16.6643 111.558C18.5341 105.072 20.5768 98.6325 22.9514 92.3129C23.1029 91.9097 23.2536 91.5041 23.4048 91.0972L23.406 91.094L23.407 91.0915L23.4089 91.0862L23.4092 91.0855C25.1943 86.2817 27.0493 81.2899 31.0494 77.907C32.1466 76.9788 34.6408 76.2593 35.8994 77.3601C40.6256 81.4944 42.7805 87.9537 44.525 93.8184C45.9323 98.5502 46.9629 103.38 47.9932 108.209C48.5093 110.628 49.0253 113.046 49.5885 115.452C53.1546 130.685 57.1275 145.882 61.2785 160.965C64.9694 174.377 69.2274 187.592 73.9795 200.664C76.1663 206.679 78.5535 212.66 81.7331 218.228C84.3587 222.827 87.9958 228.79 92.751 231.523C98.4821 234.818 103.207 227.632 105.677 223.347C108.676 218.145 110.5 212.307 112.153 206.563C115.932 193.441 119.276 180.221 121.914 166.819C127.487 138.504 130.797 109.651 133.291 80.915C134.626 65.5388 135.402 50.1438 135.401 34.7077C135.4 34.0765 135.404 33.4449 135.41 32.813L135.439 29.9683C135.474 26.1742 135.455 22.3788 134.914 18.6161C134.553 16.1123 133.898 13.5481 132.618 11.3459C132.06 10.3857 131.428 9.42144 130.561 8.71259C130.016 8.26728 129.503 8.02305 128.838 7.81588C128.776 7.79679 128.627 7.78084 128.437 7.76058C127.788 7.69137 126.67 7.57202 126.992 7.10653C126.248 8.18147 124.202 9.70477 122.782 9.01776C121.29 8.29521 122.007 6.39311 122.747 5.37402C124.616 2.80168 127.719 -0.916195 131.33 0.205464C134.118 1.07171 136.066 3.91419 137.296 6.39972C140.214 12.2974 140.553 19.1137 140.553 25.5796C140.553 42.376 140.08 59.1146 138.732 75.8622C136.208 107.223 132.605 138.776 126.336 169.624C123.428 183.93 119.976 198.282 115.444 212.169C113.338 218.622 110.634 225.027 106.398 230.388C102.887 234.832 97.5725 239.945 91.3758 238.568C86.2025 237.419 82.4842 232.074 79.5973 227.924L79.3307 227.541C75.341 221.816 72.4049 215.463 69.8803 208.976C64.3921 194.877 59.7993 180.391 55.7559 165.817C51.5853 150.785 47.8526 135.62 44.1241 120.472L44.124 120.472L43.9903 119.929C43.2114 116.763 42.5326 113.575 41.8538 110.388L41.8537 110.387C41.0294 106.516 40.2051 102.645 39.2017 98.8143C39.0911 98.392 38.9797 97.9612 38.8665 97.5236C37.6106 92.6689 36.1383 86.977 33.1835 82.7836C31.0877 85.8823 29.7945 89.7122 28.5929 93.2708C28.2949 94.1533 28.0025 95.0192 27.705 95.853C25.4207 102.252 23.418 108.75 21.5493 115.282C14.8893 138.561 10.2032 162.325 6.79132 186.284C5.28473 196.864 3.86844 207.607 4.48325 218.314C4.75007 222.96 5.37959 227.669 6.8598 232.099C7.40613 233.733 8.03819 235.36 8.8767 236.869C9.59347 238.158 11.8757 241.088 12.8486 237.969ZM178.956 215.319C176.452 216.268 173.685 217.318 170.986 217.439C165.341 217.692 160.269 212.228 158.983 207.128C157.163 199.914 159.963 192.14 162.924 185.64C166.199 178.449 170.391 171.737 174.937 165.245C174.904 164.715 174.886 164.184 174.886 163.652C174.888 157.497 176.048 150.685 178.603 145.071C181.481 138.75 188.045 132.659 195.097 131.607C198.458 131.105 201.487 131.741 200.859 135.621C200.464 138.058 198.985 140.321 197.649 142.366C197.57 142.486 197.492 142.606 197.415 142.725C194.019 147.937 190.329 152.933 186.626 157.918L184.405 160.909C183.296 162.405 182.191 163.904 181.097 165.412C182.871 173.627 188.43 181.044 194.149 186.875C196.719 189.496 199.459 191.858 202.352 193.948C204.263 192.395 206.128 190.782 207.954 189.117C210.736 186.581 213.37 183.901 215.835 181.054C216.282 180.537 216.74 180.022 217.201 179.504L217.201 179.504L217.201 179.504L217.201 179.504L217.202 179.504L217.202 179.503L217.202 179.503L217.203 179.502L217.203 179.502C218.432 178.121 219.674 176.725 220.744 175.255C221.732 173.9 222.516 172.394 223.297 170.894C223.768 169.991 224.237 169.091 224.749 168.225C225.87 166.332 231.196 167.842 229.917 170.073C229.069 171.55 228.016 172.927 226.967 174.299C226.374 175.074 225.783 175.847 225.231 176.635C224.617 177.512 224.022 178.403 223.427 179.294L223.426 179.295C222.462 180.737 221.499 182.18 220.454 183.563C216.677 188.564 212.352 193.179 207.64 197.363C214.96 201.563 223.094 204.155 231.824 204.92C233.588 205.075 235.555 209.054 233.345 208.79C229.334 208.314 225.367 207.611 221.442 206.656C215.441 205.196 209.434 203.255 203.777 200.627C199.787 203.835 195.568 206.75 191.195 209.336C187.334 211.619 183.307 213.668 179.111 215.26L178.956 215.319ZM180.558 157.501C180.795 153.449 181.728 149.2 183.349 145.812C184.601 143.197 187.219 141.289 189.71 139.939C191.152 139.157 192.77 138.527 194.43 138.49C194.435 138.49 194.455 138.492 194.486 138.496C194.497 138.497 194.511 138.499 194.525 138.5C194.537 138.502 194.55 138.503 194.563 138.505C194.41 138.748 194.222 139.047 194.127 139.188C193.74 139.767 193.343 140.34 192.942 140.91C192.071 142.148 191.176 143.37 190.276 144.587C188.502 146.982 186.694 149.37 184.881 151.765C183.438 153.671 181.992 155.581 180.558 157.501ZM164.086 196.499C163.928 197.31 163.801 198.119 163.695 198.939C163.616 199.553 163.64 199.429 163.645 199.374L163.634 199.724C163.628 199.96 163.627 200.197 163.631 200.432C163.638 200.826 163.661 201.217 163.692 201.609C163.695 201.642 163.697 201.67 163.698 201.693C163.699 201.708 163.7 201.721 163.7 201.733C163.702 201.759 163.702 201.777 163.702 201.79C163.707 201.816 163.714 201.847 163.722 201.886C163.73 201.92 163.738 201.96 163.747 202.007L163.755 202.048C163.87 202.625 163.988 203.215 164.198 203.765C164.695 205.069 165.255 205.817 166.056 206.621C167.052 207.621 168.193 208.398 169.444 208.975C170.101 209.277 170.783 209.566 171.482 209.758C171.5 209.763 171.511 209.766 171.526 209.77C171.684 209.775 171.851 209.776 172.007 209.757C179.561 208.818 186.868 204.6 193.183 200.591C194.744 199.601 196.264 198.557 197.755 197.476C193.295 194.84 189.173 191.669 185.602 187.83C181.566 183.491 178.105 178.086 176.275 172.277C174.203 175.35 172.217 178.486 170.387 181.734C168.316 185.407 166.663 188.702 165.402 192.167C165.086 193.036 164.793 193.915 164.532 194.804C164.414 195.204 164.305 195.606 164.198 196.009C164.166 196.127 164.149 196.188 164.139 196.218C164.127 196.281 164.111 196.37 164.086 196.499ZM257.75 397.183C264.839 391.48 271.032 384.819 276.801 377.801C301.897 347.268 323.974 314.005 343.561 279.706C353.689 261.973 362.914 243.888 370.666 224.981C371.13 223.848 371.593 222.713 372.054 221.577C389.934 208.894 408.798 197.652 428.435 188.332C429.336 187.905 430.237 187.479 431.138 187.053L431.139 187.053C433.015 186.167 434.892 185.28 436.761 184.38C437.414 184.065 438.103 183.665 438.816 183.252C440.481 182.287 442.275 181.247 444.047 181.032C445.174 183.989 450.845 179.986 449.893 177.389L449.718 176.911C449.642 176.705 449.566 176.498 449.491 176.291C449.264 175.668 448.746 175.374 448.115 175.296C444.384 174.835 440.759 176.729 437.39 178.489C436.56 178.923 435.745 179.348 434.949 179.728C433.449 180.444 431.947 181.153 430.444 181.862L430.444 181.862C427.261 183.365 424.077 184.867 420.923 186.43C412.025 190.84 403.388 195.804 394.93 201.005C388.189 205.15 381.574 209.501 375.075 214.019C381.144 198.592 386.689 182.813 390.556 166.761C392.106 160.327 393.346 153.538 394.547 146.965L394.548 146.965C395.156 143.637 395.754 140.365 396.377 137.222C396.465 136.776 396.561 136.329 396.659 135.882L396.856 134.987C397.311 132.897 397.715 130.794 397.445 128.643C397.291 127.409 396.918 126.11 395.888 125.322C394.458 124.227 392.178 125.06 390.652 125.65C387.031 127.05 384.114 129.728 381.291 132.321L381.29 132.321C381.14 132.459 380.99 132.597 380.84 132.734L380.745 132.821C376.993 136.255 373.248 139.694 369.519 143.153C364.329 147.969 359.03 152.658 353.729 157.348L353.726 157.351C351.357 159.448 348.988 161.544 346.629 163.651C344.073 165.934 341.523 168.232 338.969 170.533L338.963 170.538C326.214 182.026 313.392 193.579 299.501 203.611C292.965 208.331 285.768 212.733 277.85 214.623C270.664 216.338 261.27 215.681 257.713 208.178C254.247 200.866 254.617 192.499 256.898 184.926C258.987 177.987 261.996 171.224 264.962 164.556L264.966 164.547C265.603 163.115 266.238 161.689 266.861 160.265C274.125 143.675 282.942 127.623 294.037 113.274C304.483 99.7658 317.384 86.5704 333.587 80.2685C347.68 74.7872 370.343 74.936 377.644 91.0576C380.597 97.5793 382.166 106.543 379.514 113.442C379.01 114.754 380.437 115.881 381.071 114.326C384.783 105.229 382.469 92.1635 376.583 84.4048C369.034 74.4531 354.154 71.8452 342.517 73.5299C328.832 75.5113 316.696 83.0018 306.565 92.1208C295.775 101.833 286.712 113.457 278.935 125.678C271.011 138.13 264.38 151.388 258.747 165.022C258.538 165.527 258.327 166.032 258.115 166.536L257.689 167.545C257.547 167.882 257.404 168.218 257.26 168.555L256.83 169.564L256.615 170.069L256.184 171.079C251.601 181.859 247.28 192.762 249.863 204.727C251.09 210.412 253.701 215.526 259.215 217.983C265.274 220.684 272.174 220.543 278.495 218.902C291.678 215.478 302.787 206.634 313.193 198.25C323.664 189.813 333.69 180.856 343.715 171.899L343.716 171.898C345.655 170.166 347.593 168.434 349.535 166.705C361.354 156.186 373.093 145.611 384.754 134.915C384.866 134.812 384.979 134.708 385.091 134.604L385.258 134.45L385.258 134.449C386.991 132.846 388.845 131.13 391.119 130.504C392.128 132.199 391.414 135.014 390.882 137.109C390.764 137.573 390.655 138.002 390.576 138.375C389.892 141.603 389.327 144.859 388.762 148.116C388.314 150.691 387.867 153.267 387.361 155.829C384.938 168.101 381.648 180.066 377.615 191.905C374.48 201.108 371.172 210.27 367.609 219.329C360.603 224.414 353.731 229.686 347.011 235.139C316.22 260.125 288.931 289.036 265.671 321.165C251.431 340.835 238.773 362.491 232.823 386.27C231.425 391.86 228.374 405.036 236.852 406.765C244.107 408.245 251.275 402.432 256.681 398.048C257.045 397.752 257.402 397.463 257.75 397.183ZM237.173 396.584C237.412 398.102 237.924 399.546 239.319 400.322C241.63 401.606 245.705 399.935 248.098 398.569C257.067 393.451 264.682 385.306 271.302 377.519C286.166 360.033 299.562 341.024 312.247 321.919C325.539 301.898 337.863 281.214 349.124 259.98C354.801 249.277 359.865 238.264 364.494 227.065C346.734 240.269 330.009 254.873 314.539 270.385C297.895 287.074 282.675 305.221 268.882 324.334C262.12 333.702 255.844 343.431 250.51 353.69C249.559 355.519 248.643 357.357 247.782 359.229C247.774 359.246 247.769 359.257 247.762 359.271L247.715 359.377L247.474 359.913C247.278 360.354 247.081 360.796 246.888 361.238C246.412 362.322 245.945 363.411 245.487 364.503C243.175 370.018 241.052 375.629 239.36 381.367C237.961 386.114 236.389 391.591 237.173 396.584Z" fill="#A1A1A1"/>
</svg>
