<svg xmlns="http://www.w3.org/2000/svg" viewBox="0 0 263.68 116.84"><g id="Layer_2" data-name="Layer 2"><g id="Layer_1-2" data-name="Layer 1"><path d="M128.32,2c1,3.41.73,2.92-29,57.44,8.76.24,5.36,0,8.28.24,1.46,0,1,2-.25,2.19-11.92,1.22-6.57-5.35-14.6,9.5C84.26,86.9,78.18,98.1,76.23,115.62c-.49,4.38-11.2-.73,14.12-54-26,0-10.23-3.16-47.47,28C13.19,114.65-8,109.05,12.46,79.6c10.71-15.33,16.31-13.87-1-10.95-8.77,1.7-9.25,1.7-10.23,1.22C-1.9,68.16,1.75,65,2.72,66.7c.74,1.46-.24,0,23.61-3.41,11.44-10.95,25.32-20.2,40.41-25.07a1.54,1.54,0,0,1,1,2.92C54.08,46.26,41.67,53.07,31,62.81,77.45,57,62.84,66.7,88.4,39.68,112,14.61,122.23-.48,126.37,0,127.34.26,127.83.74,128.32,2Zm-101,64.25c-7.55,7.31-18,20.94-20,28-1.22,4.14.49,9.5,5.6,8.28C29,99.32,48.73,79.6,66.25,62.08,51.16,63.05,39.48,64.51,27.31,66.21Zm64-7c5.6-11.2,9.25-18.5,19.47-37.49C69.42,67.92,69.17,59.16,91.32,59.16Z"/><path d="M141.21,62.32c-10,9.74-15.09,3.89-8,16.06a24.93,24.93,0,0,0,2.68-6.57c.73-1.7,6.33-2.68-.49,7.06-1.46,1.7-1.7.24,2.44,6.82.48.73.24,5.59-5.85-2.68-12.65,13.87-29.2-6.57-6.57-19-.24-14.6,8.76-21.41,15.82-21.66C149,41.88,154.6,49.42,141.21,62.32ZM127.34,84.47c6.57-3.41,1.95-2.68-.73-13.14C111.28,77.9,118.82,89.09,127.34,84.47Zm1.22-22.15c5.35-2.68,10.22-6.33,13.38-12.9,1.22-2.19.25-3.41-1.46-3.65C136.83,45.53,128.8,51.12,128.56,62.32Z"/><path d="M239.54,12.67a2.33,2.33,0,0,1-2.19,3.89c-6.33-1.46-12.41-3.89-18.74-4.62-12.41-1.22-35.54,4.62-31.4,11.68,2.68,4.38,13.14,7.79,19.23,8.28,2.92.24,3.89,4.62.73,5.35C193.78,39.68,158,67.43,168,95.66c3.65,10.47,14.61,17,32.37,11.93,23.61-7.06,45-28.23,61.34-46.73,1-1.22,2.68,0,1.7,1.22-10.95,12.17-21.17,23.61-34.07,33.58-63,48.44-99.79-16.55-42.6-56.22,9.5-6.57,11.44-3.65,6.09-6.08-27.5-11.93-2.92-29.45,21.42-29.7C223.72,3.42,233.21,6.1,239.54,12.67Z"/></g></g></svg>