<svg id="_1" data-name="1" xmlns="http://www.w3.org/2000/svg" viewBox="0 0 24 24"><path d="M21.5,22H2.5A2.5,2.5,0,0,1,0,19.5V4.5A2.5,2.5,0,0,1,2.5,2H21.5A2.5,2.5,0,0,1,24,4.5v15A2.5,2.5,0,0,1,21.5,22ZM2.5,3A1.5,1.5,0,0,0,1,4.5v15A1.5,1.5,0,0,0,2.5,21H21.5A1.5,1.5,0,0,0,23,19.5V4.5A1.5,1.5,0,0,0,21.5,3Z"/><path d="M23.5,16a.5.5,0,0,1-.312-.11l-4.7-3.761L13.294,15.9a.5.5,0,0,1-.619-.025L6.01,10.167.84,14.87a.5.5,0,0,1-.673-.74l5.5-5a.5.5,0,0,1,.661-.009l6.7,5.742L18.206,11.1a.5.5,0,0,1,.606.014l5,4A.5.5,0,0,1,23.5,16Z"/></svg>