<svg id="_1" data-name="1" xmlns="http://www.w3.org/2000/svg" viewBox="0 0 24 24"><path d="M17,24a6.939,6.939,0,0,1-4.309-1.482.5.5,0,0,1,.617-.789A5.933,5.933,0,0,0,17,23a6,6,0,1,0-5.539-3.69.5.5,0,0,1-.923.386A7,7,0,1,1,17,24Z"/><path d="M7,24A7,7,0,0,1,7,10a6.936,6.936,0,0,1,4.308,1.482.5.5,0,0,1-.616.789A5.935,5.935,0,0,0,7,11a6,6,0,1,0,5.539,3.69.5.5,0,0,1,.923-.386A7,7,0,0,1,7,24Z"/><path d="M12,7.95a.5.5,0,0,1-.354-.147L8.111,4.268A2.5,2.5,0,0,1,11.646.732L12,1.086l.354-.354a2.5,2.5,0,1,1,3.535,3.536L12.354,7.8A.5.5,0,0,1,12,7.95ZM9.878,1a1.5,1.5,0,0,0-1.06,2.56L12,6.743l3.182-3.182a1.5,1.5,0,1,0-2.121-2.122l-.707.707a.5.5,0,0,1-.708,0l-.707-.707A1.5,1.5,0,0,0,9.878,1Z"/></svg>