<svg width="43" height="39" viewBox="0 0 43 39" fill="none" xmlns="http://www.w3.org/2000/svg">
<mask id="mask0" mask-type="alpha" maskUnits="userSpaceOnUse" x="0" y="0" width="14" height="24">
<path fill-rule="evenodd" clip-rule="evenodd" d="M0 0H13.7806V23.9409H0V0Z" fill="white"/>
</mask>
<g mask="url(#mask0)">
<path fill-rule="evenodd" clip-rule="evenodd" d="M13.7806 2.51845C13.7806 4.17243 13.7342 5.82045 13.6021 7.46947C13.3548 10.5573 13.0014 13.6639 12.3868 16.7011C12.1016 18.1098 11.7631 19.5227 11.3188 20.8903C11.1123 21.5256 10.8472 22.1563 10.4322 22.684C10.0877 23.1214 9.56667 23.6249 8.95904 23.4895C8.43604 23.373 8.06487 22.8168 7.77801 22.4036C7.38676 21.8398 7.09891 21.2144 6.85158 20.5758C6.31343 19.1877 5.86289 17.7611 5.46669 16.3263C5.05304 14.8286 4.68286 13.3173 4.313 11.8083C4.14405 11.1181 4.02318 10.4169 3.84369 9.72929C3.71261 9.22641 3.56935 8.60103 3.25351 8.15079C2.99695 8.53151 2.86324 9.02446 2.71635 9.43762C2.4924 10.0676 2.29611 10.7076 2.113 11.3505C1.45991 13.6428 1.00048 15.9824 0.665868 18.3415C0.517994 19.383 0.37934 20.4411 0.43961 21.4952C0.465628 21.9527 0.527545 22.4165 0.672455 22.8525C0.726138 23.0134 0.788054 23.1737 0.87039 23.322C0.94054 23.4491 1.16449 23.7375 1.25967 23.4306C1.32521 23.2197 1.60351 23.5193 1.56135 23.6706C1.40854 24.2178 0.871048 23.8103 0.684641 23.5305C0.4294 23.1468 0.276256 22.6863 0.17416 22.2401C-0.0876669 21.0926 -0.0106008 19.8942 0.121795 18.7348C0.26967 17.441 0.455419 16.1499 0.700779 14.871C0.952067 13.562 1.26626 12.2649 1.63381 10.984C1.81725 10.3454 2.01749 9.71141 2.25033 9.08902C2.44069 8.58051 2.61854 8.03227 3.04438 7.67075C3.15207 7.57938 3.39645 7.50853 3.51995 7.61679C3.983 8.02366 4.19444 8.65996 4.3657 9.23733C4.57286 9.93653 4.69636 10.6576 4.86202 11.3674C5.21145 12.8671 5.60106 14.3635 6.00813 15.8486C6.37008 17.1692 6.78768 18.4703 7.25337 19.7574C7.46777 20.3497 7.70194 20.9387 8.01349 21.4866C8.27104 21.9395 8.62772 22.5268 9.09407 22.7959C9.65592 23.12 10.119 22.4126 10.361 21.9908C10.6551 21.4786 10.834 20.9039 10.996 20.3381C11.3665 19.046 11.6946 17.7446 11.9531 16.425C12.4995 13.6371 12.8242 10.7963 13.0686 7.96705C13.1996 6.45278 13.2757 4.93718 13.2754 3.41728C13.2754 2.88891 13.3031 2.35756 13.2276 1.83283C13.1924 1.58652 13.1282 1.33392 13.0027 1.11708C12.948 1.02239 12.8861 0.927377 12.8008 0.857523C12.7475 0.813823 12.6971 0.789656 12.6319 0.769461C12.6055 0.761185 12.4102 0.758867 12.4511 0.699608C12.3783 0.805547 12.1774 0.955517 12.0384 0.88765C11.8922 0.816472 11.9623 0.629423 12.0348 0.529111C12.2182 0.27585 12.5222 -0.0903032 12.8762 0.020271C13.1496 0.105354 13.3409 0.385431 13.4611 0.630085C13.7473 1.21077 13.7806 1.88183 13.7806 2.51845" fill="black"/>
</g>
<path fill-rule="evenodd" clip-rule="evenodd" d="M17.2894 15.639C17.6081 15.2155 17.9328 14.7973 18.2468 14.3771C18.3352 14.2582 18.4235 14.1389 18.5096 14.0177C18.549 13.9622 18.588 13.9063 18.6261 13.8495C18.6353 13.8357 18.6539 13.8068 18.6691 13.7828C18.6615 13.7821 18.6569 13.7815 18.6559 13.7815C18.4924 13.7848 18.3329 13.8465 18.1909 13.9231C17.9453 14.0548 17.6876 14.2414 17.5641 14.4967C17.4046 14.8278 17.3126 15.2428 17.2894 15.639M18.9816 19.5449C18.5421 19.2874 18.136 18.9776 17.7842 18.6024C17.3868 18.1782 17.0459 17.6503 16.8656 17.0826C16.6611 17.3829 16.4658 17.6894 16.2855 18.0067C16.0813 18.3655 15.9184 18.6875 15.794 19.0262C15.7632 19.1109 15.7341 19.197 15.7086 19.2838C15.6967 19.3228 15.6861 19.3623 15.6755 19.4017C15.6722 19.4129 15.6706 19.4188 15.6696 19.4221C15.6686 19.428 15.6669 19.4368 15.6646 19.4493C15.6491 19.5285 15.6365 19.6077 15.6259 19.6878C15.6176 19.7519 15.6209 19.7338 15.6213 19.7299C15.6196 19.7647 15.619 19.7992 15.6196 19.8337C15.6203 19.8722 15.6226 19.9103 15.6259 19.9487C15.6262 19.9586 15.6266 19.9638 15.6266 19.9664C15.6276 19.971 15.6292 19.9779 15.6312 19.9875C15.6425 20.0453 15.6544 20.1041 15.6755 20.1593C15.7245 20.2868 15.7795 20.36 15.8589 20.4382C15.9568 20.5361 16.069 20.612 16.1921 20.6685C16.2573 20.6978 16.3245 20.726 16.3933 20.7451C16.395 20.7454 16.3963 20.7457 16.3976 20.746C16.4129 20.7464 16.4294 20.7467 16.445 20.7451C17.1889 20.6531 17.909 20.2408 18.5312 19.8492C18.685 19.7526 18.8346 19.6504 18.9816 19.5449M22.4904 20.6508C22.0956 20.6042 21.7044 20.5355 21.3179 20.4422C20.7265 20.2996 20.1348 20.1097 19.5775 19.8531C19.1844 20.1665 18.7687 20.4514 18.3379 20.704C17.9576 20.9271 17.5605 21.1275 17.1472 21.2829C16.897 21.3772 16.6183 21.4836 16.3467 21.4958C15.7907 21.5204 15.291 20.9866 15.1642 20.4882C14.9852 19.7835 15.2609 19.0239 15.5527 18.3889C15.8754 17.6861 16.2884 17.0301 16.7362 16.396C16.7328 16.3444 16.7312 16.2922 16.7312 16.2403C16.7315 15.639 16.8457 14.9734 17.0975 14.4248C17.3808 13.8071 18.0278 13.2122 18.7224 13.1093C19.0533 13.0601 19.3515 13.1222 19.29 13.5013C19.2489 13.7536 19.0881 13.9865 18.9508 14.1955C18.4487 14.9593 17.8818 15.6758 17.3431 16.4124C17.5175 17.215 18.0655 17.9394 18.6288 18.5094C18.8823 18.7654 19.152 18.9963 19.4369 19.2003C19.6255 19.0486 19.8089 18.8912 19.9889 18.7286C20.2629 18.4805 20.5227 18.219 20.7653 17.9407C20.9271 17.7555 21.1038 17.5715 21.2491 17.374C21.405 17.1618 21.5092 16.9124 21.6436 16.6871C21.7538 16.5021 22.2786 16.6499 22.1525 16.8678C22.0221 17.0935 21.8418 17.2955 21.6912 17.5087C21.5324 17.7334 21.3871 17.967 21.2206 18.1858C20.8483 18.6744 20.4224 19.1254 19.9581 19.5341C20.6792 19.9445 21.4804 20.1978 22.3408 20.2727C22.5142 20.2878 22.7082 20.6764 22.4904 20.6508" fill="black"/>
<path fill-rule="evenodd" clip-rule="evenodd" d="M34.2836 21.9548C32.5911 23.2056 30.9972 24.5889 29.523 26.0582C27.9365 27.6394 26.4864 29.3584 25.1716 31.1692C24.5272 32.0566 23.9292 32.9781 23.4209 33.9502C23.3303 34.1232 23.2429 34.2974 23.1609 34.4748C23.16 34.4764 23.1596 34.4773 23.159 34.4786C23.1577 34.4815 23.1561 34.4847 23.1545 34.4888L23.1315 34.5395C23.1129 34.5812 23.094 34.6229 23.0758 34.665C23.0303 34.7678 22.9858 34.8707 22.9423 34.9742C22.7217 35.4966 22.5194 36.0282 22.3584 36.5719C22.2249 37.0214 22.0751 37.5405 22.15 38.0135C22.1724 38.1572 22.2214 38.2938 22.3542 38.3674C22.5745 38.4891 22.9631 38.3308 23.191 38.2015C24.0457 37.7164 24.7715 36.9452 25.4024 36.2072C26.819 34.5509 28.0956 32.7503 29.3044 30.9402C30.5711 29.0437 31.7457 27.0842 32.8187 25.0727C33.36 24.0589 33.8425 23.0157 34.2836 21.9548M41.8659 17.5939C41.6248 17.6232 41.3793 17.8118 41.1715 17.9112C40.9078 18.0376 40.6427 18.1609 40.3783 18.2854C38.5065 19.1684 36.709 20.2335 35.005 21.4349C34.9612 21.5426 34.917 21.6499 34.8728 21.7573C34.134 23.5483 33.2549 25.2616 32.2897 26.9415C30.4228 30.1904 28.3189 33.3418 25.9273 36.234C25.3773 36.8987 24.7873 37.5297 24.1116 38.0703C23.5866 38.4901 22.8583 39.1274 22.1201 38.9777C21.3121 38.814 21.6028 37.566 21.7362 37.0363C22.3032 34.7838 23.5094 32.7322 24.8667 30.8688C27.0833 27.8254 29.6839 25.0864 32.6182 22.7195C33.2587 22.2029 33.9137 21.7035 34.5815 21.2219C34.9208 20.3638 35.2361 19.4958 35.5348 18.624C35.9193 17.5025 36.2327 16.3689 36.4638 15.2063C36.573 14.6568 36.6533 14.1007 36.7702 13.5532C36.8118 13.3579 36.9392 13.0034 36.822 12.8075C36.5842 12.8725 36.3943 13.062 36.2154 13.2254C35.1039 14.2383 33.9851 15.2404 32.8589 16.2367C31.7167 17.247 30.5864 18.2714 29.3955 19.2251C28.4038 20.0194 27.3451 20.8571 26.0886 21.1814C25.4865 21.3368 24.8286 21.3502 24.2511 21.0944C23.7258 20.8616 23.4771 20.3771 23.3602 19.8385C23.0676 18.4925 23.7031 17.2888 24.2066 16.0774C24.7435 14.7858 25.3754 13.5299 26.1306 12.3501C26.8717 11.1923 27.7353 10.0912 28.7636 9.17131C29.7294 8.30748 30.886 7.59782 32.1902 7.41021C33.2991 7.25063 34.7172 7.4978 35.4365 8.4403C35.9977 9.17545 36.218 10.4132 35.8642 11.2748C35.804 11.4223 35.668 11.3156 35.716 11.1914C35.9686 10.5374 35.8191 9.68858 35.5377 9.07065C34.8418 7.54335 32.6822 7.52934 31.339 8.04852C29.795 8.64543 28.5654 9.89562 27.5698 11.1751C26.5125 12.5346 25.6722 14.0552 24.98 15.6267C24.6436 16.3899 24.2726 17.1639 24.0306 17.9628C23.8132 18.6804 23.7777 19.4729 24.108 20.1653C24.447 20.8763 25.3424 20.9387 26.0272 20.7759C26.7817 20.5969 27.4677 20.18 28.0907 19.7328C29.6798 18.5922 31.1222 17.2435 32.582 15.9475C33.31 15.3009 34.0475 14.6658 34.7633 14.0058C35.1187 13.678 35.4756 13.3522 35.8332 13.027C36.1187 12.7671 36.41 12.4887 36.7775 12.3476C36.9229 12.2918 37.1399 12.2128 37.2763 12.3164C37.3746 12.3912 37.4101 12.5142 37.4248 12.6314C37.4594 12.9079 37.3765 13.1757 37.323 13.4439C37.1463 14.33 36.9907 15.3241 36.7683 16.2421C36.3998 17.7627 35.8713 19.2575 35.2928 20.7189C35.9122 20.2908 36.5426 19.8787 37.185 19.4862C37.9911 18.9935 38.8142 18.523 39.6622 18.1055C40.1049 17.8873 40.5534 17.6818 40.999 17.4703C41.3831 17.2881 41.8105 16.9961 42.2539 17.0508C42.3141 17.0578 42.363 17.0859 42.3848 17.1448C42.3976 17.1795 42.4104 17.2142 42.4232 17.249C42.5138 17.4949 41.9734 17.8739 41.8659 17.5939" fill="black"/>
</svg>
